<svg xmlns="http://www.w3.org/2000/svg" viewBox="0 0 504 175.2"><defs><style>.cls-1{fill:#2fabf7;}.cls-2{fill:#228fe0;}.cls-3{fill:#0571c1;}</style></defs><title>american-express</title><g id="Capa_2" data-name="Capa 2"><g id="Capa_1-2" data-name="Capa 1"><polygon class="cls-1" points="43.2 43.2 60.8 43.2 52 20.8 43.2 43.2"/><path class="cls-2" d="M261.6,24c-1.6-.8-4-.8-6.4-.8h-16V36h16c2.4,0,4.8,0,6.4-.8S264,32,264,29.6C264.8,26.4,263.2,24.8,261.6,24Z"/><path class="cls-3" d="M432.8,0V9.6L428,0H390.4V9.6L385.6,0H334.4c-8.8,0-16,1.6-22.4,4.8V0H276V4.8C272,1.6,267.2,0,260.8,0H132l-8.8,20L114.4,0H73.6V9.6L68.8,0H34.4l-16,37.6L0,79.2H40.8l4.8-12.8H56.8l4.8,12.8H108V69.6l4,9.6h23.2l4-9.6v9.6H250.4V58.4H252c1.6,0,1.6,0,1.6,2.4V78.4h57.6V73.6a47.92,47.92,0,0,0,21.6,4.8h24l4.8-12.8h11.2l4.8,12.8H424v-12l7.2,12h37.6V0ZM162.4,67.2H148.8v-44l-19.2,44h-12l-19.2-44v44H71.2l-5.6-12H38.4L33.6,68H18.4l24-56.8h20L84.8,64.8V11.2h21.6L124,49.6l16-38.4h22.4Zm54.4-44H185.6V33.6H216V44.8H185.6V56h31.2V68H172V11.2h44.8Zm60,23.2a20,20,0,0,1,2.4,10.4V68H265.6V60.8c0-3.2,0-8-2.4-11.2-2.4-2.4-4.8-2.4-9.6-2.4H239.2V68H225.6V11.2H256c7.2,0,12,0,16,2.4s6.4,6.4,6.4,12.8c0,8.8-5.6,13.6-9.6,15.2A15.21,15.21,0,0,1,276.8,46.4Zm24,20.8H287.2V10.4h13.6Zm157.6,0H439.2L413.6,24.8V67.2H386.4l-4.8-12h-28L348.8,68H333.6c-6.4,0-14.4-1.6-19.2-6.4s-7.2-11.2-7.2-21.6c0-8,1.6-16,7.2-22.4,4-4.8,11.2-6.4,20-6.4h12.8v12H334.4c-4.8,0-7.2.8-10.4,3.2-2.4,2.4-4,7.2-4,12.8,0,6.4.8,10.4,4,13.6,2.4,2.4,5.6,3.2,9.6,3.2h5.6l18.4-44h20L400,65.6V12h20l23.2,39.2V12h13.6V67.2Z"/><polygon class="cls-2" points="358.4 43.2 376.8 43.2 368 20.8 358.4 43.2"/><polygon class="cls-2" points="222.4 158.4 222.4 112.8 201.6 135.2 222.4 158.4"/><polygon class="cls-1" points="136.8 118.4 136.8 128.8 166.4 128.8 166.4 140 136.8 140 136.8 152 169.6 152 184.8 135.2 170.4 118.4 136.8 118.4"/><path id="SVGCleanerId_0" data-name="SVGCleanerId 0" class="cls-2" d="M252.8,118.4H236v14.4h17.6c4.8,0,8-2.4,8-7.2C260.8,120.8,257.6,118.4,252.8,118.4Z"/><path class="cls-3" d="M500,132V96H466.4q-10.8,0-16.8,4.8V96H412.8c-5.6,0-12.8,1.6-16,4.8V96H332v4.8c-4.8-4-13.6-4.8-17.6-4.8H271.2v4.8c-4-4-13.6-4.8-18.4-4.8h-48l-11.2,12L183.2,96h-72v78.4h70.4l11.2-12,10.4,12h43.2V156H252c5.6,0,12.8,0,18.4-2.4v21.6h36V154.4H308c2.4,0,2.4,0,2.4,2.4v18.4H419.2c7.2,0,14.4-1.6,18.4-4.8v4.8H472c7.2,0,14.4-.8,19.2-4h0c8-4.8,12.8-13.6,12.8-24A30.64,30.64,0,0,0,500,132ZM252,144.8H236V164H210.4l-16-18.4L177.6,164H124.8V107.2h53.6l16,18.4,16.8-18.4h42.4c10.4,0,22.4,3.2,22.4,18.4C275.2,141.6,264,144.8,252,144.8Zm80-3.2c1.6,2.4,2.4,5.6,2.4,10.4v11.2H320.8V156c0-3.2,0-8.8-2.4-11.2-1.6-2.4-4.8-2.4-9.6-2.4H294.4v20.8H280.8V106.4h30.4c6.4,0,12,0,16,2.4a14.15,14.15,0,0,1,7.2,12.8c0,8.8-5.6,13.6-9.6,15.2Q330.8,139.2,332,141.6Zm55.2-23.2H356v10.4h30.4V140H356v11.2h31.2v12H342.4V106.4h44.8Zm33.6,44.8H395.2v-12h25.6c2.4,0,4,0,5.6-1.6a5.8,5.8,0,0,0,0-8,6.76,6.76,0,0,0-4.8-1.6c-12.8-.8-28,0-28-17.6,0-8,4.8-16.8,19.2-16.8h26.4v13.6H414.4c-2.4,0-4,0-5.6.8s-1.6,2.4-1.6,4c0,2.4,1.6,3.2,3.2,4a10.15,10.15,0,0,0,4.8.8h7.2c7.2,0,12,1.6,15.2,4.8,2.4,2.4,4,6.4,4,12C441.6,157.6,434.4,163.2,420.8,163.2Zm68.8-5.6c-3.2,3.2-8.8,5.6-16.8,5.6H447.2v-12h25.6c2.4,0,4,0,5.6-1.6a5.8,5.8,0,0,0,0-8,6.76,6.76,0,0,0-4.8-1.6c-12.8-.8-28,0-28-17.6,0-8,4.8-16.8,19.2-16.8h26.4v13.6h-24c-2.4,0-4,0-5.6.8s-1.6,2.4-1.6,4c0,2.4.8,3.2,3.2,4a10.15,10.15,0,0,0,4.8.8h7.2c7.2,0,12,1.6,15.2,4.8a.78.78,0,0,1,.8.8c2.4,3.2,3.2,7.2,3.2,11.2A16.28,16.28,0,0,1,489.6,157.6Z"/><path id="SVGCleanerId_1" data-name="SVGCleanerId 1" class="cls-2" d="M317.6,120c-1.6-.8-4-.8-6.4-.8h-16V132h16c2.4,0,4.8,0,6.4-.8s2.4-3.2,2.4-5.6C320.8,122.4,319.2,120.8,317.6,120Z"/><path class="cls-2" d="M261.6,24c-1.6-.8-4-.8-6.4-.8h-16V36h16c2.4,0,4.8,0,6.4-.8S264,32,264,29.6C264.8,26.4,263.2,24.8,261.6,24Z"/><polygon class="cls-2" points="358.4 43.2 376.8 43.2 368 20.8 358.4 43.2"/><polygon class="cls-2" points="222.4 158.4 222.4 112.8 201.6 135.2 222.4 158.4"/><path id="SVGCleanerId_0-2" data-name="SVGCleanerId 0" class="cls-2" d="M252.8,118.4H236v14.4h17.6c4.8,0,8-2.4,8-7.2C260.8,120.8,257.6,118.4,252.8,118.4Z"/><path id="SVGCleanerId_1-2" data-name="SVGCleanerId 1" class="cls-2" d="M317.6,120c-1.6-.8-4-.8-6.4-.8h-16V132h16c2.4,0,4.8,0,6.4-.8s2.4-3.2,2.4-5.6C320.8,122.4,319.2,120.8,317.6,120Z"/><polygon class="cls-1" points="247.2 161.6 236 149.6 236 163.2 209.6 163.2 193.6 144.8 176 163.2 123.2 163.2 123.2 107.2 176.8 107.2 193.6 125.6 201.6 116 181.6 96 111.2 96 111.2 174.4 181.6 174.4 193.6 162.4 204 174.4 247.2 174.4 247.2 161.6"/><polygon class="cls-1" points="164 78.4 153.6 67.2 148.8 67.2 148.8 62.4 136.8 50.4 128.8 67.2 117.6 67.2 98.4 23.2 98.4 67.2 71.2 67.2 65.6 55.2 38.4 55.2 32.8 67.2 18.4 67.2 42.4 11.2 62.4 11.2 84.8 64.8 84.8 11.2 96.8 11.2 85.6 0 73.6 0 73.6 9.6 69.6 0 34.4 0 18.4 37.6 0 78.4 18.4 78.4 41.6 78.4 46.4 66.4 57.6 66.4 63.2 78.4 108 78.4 108 68.8 112 78.4 135.2 78.4 139.2 68.8 139.2 78.4 164 78.4"/><polygon class="cls-1" points="127.2 41.6 114.4 28.8 124 49.6 127.2 41.6"/><path class="cls-2" d="M491.2,170.4A29.26,29.26,0,0,0,504,148.8l-11.2-11.2a23.67,23.67,0,0,1,1.6,8,16.28,16.28,0,0,1-4.8,12c-3.2,3.2-8.8,5.6-16.8,5.6H447.2v-12h25.6c2.4,0,4,0,5.6-1.6a5.8,5.8,0,0,0,0-8,6.76,6.76,0,0,0-4.8-1.6c-12.8-.8-28,0-28-17.6,0-8,4.8-15.2,16.8-16.8l-8.8-8.8c-1.6.8-2.4,1.6-3.2,1.6V93.6H413.6c-5.6,0-12.8,1.6-16,4.8V93.6H332v4.8c-4.8-4-13.6-4.8-17.6-4.8H271.2v4.8c-4-4-13.6-4.8-18.4-4.8h-48l-11.2,12-10.4-12h-8.8l24,24,12-12.8h42.4c10.4,0,22.4,3.2,22.4,18.4,0,16-11.2,19.2-23.2,19.2H236v12l12,12v-12h4c5.6,0,12.8,0,18.4-2.4v21.6h36V152.8H308c2.4,0,2.4,0,2.4,2.4v18.4H419.2c7.2,0,14.4-1.6,18.4-4.8v4.8H472c6.4.8,13.6,0,19.2-3.2ZM332,141.6c1.6,2.4,2.4,5.6,2.4,10.4v11.2H320.8V156c0-3.2,0-8.8-2.4-11.2-1.6-2.4-4.8-2.4-9.6-2.4H294.4v20.8H280.8V106.4h30.4c6.4,0,12,0,16,2.4a14.15,14.15,0,0,1,7.2,12.8c0,8.8-5.6,13.6-9.6,15.2Q330.8,139.2,332,141.6Zm55.2-23.2H356v10.4h30.4V140H356v11.2h31.2v12H342.4V106.4h44.8Zm33.6,44.8H395.2v-12h25.6c2.4,0,4,0,5.6-1.6a5.8,5.8,0,0,0,0-8,6.76,6.76,0,0,0-4.8-1.6c-12.8-.8-28,0-28-17.6,0-8,4.8-16.8,19.2-16.8h26.4v13.6H414.4c-2.4,0-4,0-5.6.8s-1.6,2.4-1.6,4c0,2.4,1.6,3.2,3.2,4a10.15,10.15,0,0,0,4.8.8h7.2c7.2,0,12,1.6,15.2,4.8,2.4,2.4,4,6.4,4,12C441.6,157.6,434.4,163.2,420.8,163.2Z"/><path class="cls-2" d="M459.2,124c0,2.4.8,3.2,3.2,4a10.15,10.15,0,0,0,4.8.8h7.2a23.23,23.23,0,0,1,11.2,2.4l-12-12h-7.2c-2.4,0-4,0-5.6.8A6.11,6.11,0,0,0,459.2,124Z"/><polygon class="cls-2" points="431.2 76 432.8 78.4 433.6 78.4 431.2 76"/><polygon class="cls-2" points="387.2 32 400.8 64.8 400.8 45.6 387.2 32"/><path class="cls-2" d="M250.4,58.4H252c1.6,0,1.6,0,1.6,2.4V78.4h57.6V73.6a47.92,47.92,0,0,0,21.6,4.8h24l4.8-12.8h11.2l4.8,12.8H424v-8L412.8,59.2V68H385.6l-4-12.8h-28L348.8,68H333.6c-6.4,0-14.4-1.6-19.2-6.4s-7.2-11.2-7.2-21.6c0-8,1.6-16,7.2-22.4,4-4.8,11.2-6.4,20-6.4h12.8v12H334.4c-4.8,0-7.2.8-10.4,3.2-2.4,2.4-4,7.2-4,12.8,0,6.4.8,10.4,4,13.6,2.4,2.4,5.6,3.2,9.6,3.2h5.6l18.4-44h8L354.4.8H333.6c-8.8,0-16,1.6-22.4,4.8V.8H276V5.6C272,2.4,267.2.8,260.8.8H132l-8.8,20L114.4.8H79.2L90.4,12h16L120,41.6l4.8,4.8,14.4-35.2h22.4V68H148V24L134.4,56l23.2,23.2h92Zm36.8-47.2h13.6V68H287.2Zm-70.4,12H185.6V33.6H216V44.8H185.6V56h31.2V68H172V11.2h44.8Zm22.4,44H225.6V10.4H256c7.2,0,12,0,16,2.4s6.4,6.4,6.4,12.8c0,8.8-5.6,13.6-9.6,15.2a10.47,10.47,0,0,1,6.4,4.8A20,20,0,0,1,277.6,56V67.2H264V60c0-3.2,0-8-2.4-11.2-.8-1.6-3.2-1.6-8-1.6H239.2v20Z"/></g></g></svg>