<?xml version="1.0" encoding="iso-8859-1"?>
<!-- Generator: Adobe Illustrator 21.0.0, SVG Export Plug-In . SVG Version: 6.00 Build 0)  -->
<svg version="1.1" id="Capa_1" xmlns="http://www.w3.org/2000/svg" xmlns:xlink="http://www.w3.org/1999/xlink" x="0px" y="0px"
	 viewBox="0 0 409.602 315.98" style="enable-background:new 0 0 409.602 315.98;" xml:space="preserve">
<g>
	<path style="fill:#FF9016;" d="M379.637,161.769H367.5C366.988,72.484,294.203,0,204.801,0C115.395,0,42.609,72.484,42.098,161.769
		H29.961C13.441,161.769,0,175.211,0,191.73v3.961c0,12.828,8.109,23.797,19.473,28.059c-1.946,3.968-3.039,8.425-3.039,13.136
		v3.969c0,13.086,8.437,24.234,20.156,28.305c-1.871,3.906-2.922,8.277-2.922,12.89v3.969c0,16.52,13.441,29.961,29.961,29.961
		h282.34c16.523,0,29.961-13.441,29.961-29.961v-3.969c0-4.613-1.047-8.984-2.918-12.89c11.718-4.074,20.156-15.219,20.156-28.305
		v-3.969c0-4.711-1.094-9.168-3.039-13.136c11.363-4.262,19.473-15.231,19.473-28.059v-3.961
		C409.598,175.211,396.16,161.769,379.637,161.769L379.637,161.769z M204.801,18.726c79.078,0,143.465,64.082,143.976,143.043
		h-13.168c0.024-3.062-0.195-6.187-0.683-9.379c-4.11-26.816-15.395-44.554-30.946-49.554v-8.743c0-5.168-4.195-9.359-9.363-9.359
		c-5.172,0-9.363,4.191-9.363,9.359v8.743c-6.57,2.113-12.375,6.503-17.203,12.89c-4.711-10.828-12.992-19.371-23.227-23.043
		c-8.086-2.902-16.375-2.457-24.164,1.055V83.582c0-18.434-15-33.434-33.433-33.434c-5.172,0-9.364,4.195-9.364,9.363
		c0,5.172,4.192,9.364,9.364,9.364c8.109,0,14.707,6.597,14.707,14.707v10.14c-7.84-3.492-14.801-3.215-19.231-2.379
		c-9.164,1.727-17.398,7.453-23.301,15.789c-9.234-7.48-20.847-11.722-32.996-11.722c-28.91,0-52.429,23.519-52.429,52.429
		c0,4.747,0.64,9.426,1.882,13.93H60.824C61.336,82.808,125.719,18.726,204.801,18.726L204.801,18.726z M316.891,161.769H272.34
		c-0.024-2.109,0.129-4.289,0.472-6.539c2.485-16.203,9.688-35.125,21.805-35.125c12.113,0,19.317,18.922,21.801,35.125
		C316.762,157.48,316.914,159.664,316.891,161.769L316.891,161.769z M253.609,136.461c0,9.183-2.961,18.031-8.406,25.308h-67.805
		c-0.914-1.223-1.765-2.484-2.531-3.781c-3.847-6.488-5.879-13.934-5.879-21.527c0-3.536,0.551-7.016,1.641-10.348
		c2.844-8.699,8.945-15.125,15.547-16.371c7.429-1.403,13.832,4.183,17.894,9.117c0.207,0.25,0.43,0.488,0.66,0.715
		c0.079,0.078,0.165,0.148,0.247,0.222c0.16,0.149,0.32,0.29,0.484,0.422c0.098,0.078,0.199,0.149,0.297,0.223
		c0.168,0.121,0.336,0.238,0.508,0.352c0.101,0.062,0.203,0.125,0.304,0.183c0.188,0.11,0.375,0.211,0.567,0.305
		c0.097,0.051,0.195,0.097,0.297,0.144c0.207,0.094,0.414,0.176,0.628,0.258c0.094,0.031,0.188,0.07,0.282,0.102
		c0.226,0.074,0.457,0.136,0.691,0.195c0.09,0.023,0.176,0.051,0.266,0.07c0.246,0.055,0.5,0.09,0.754,0.125
		c0.078,0.012,0.156,0.028,0.234,0.036c0.332,0.035,0.668,0.058,1.008,0.058c0.34,0,0.676-0.023,1.008-0.058
		c0.082-0.008,0.16-0.024,0.238-0.036c0.254-0.035,0.504-0.074,0.754-0.125c0.09-0.023,0.176-0.047,0.262-0.07
		c0.234-0.059,0.464-0.121,0.691-0.195c0.094-0.032,0.188-0.067,0.281-0.102c0.215-0.078,0.426-0.164,0.633-0.258
		c0.098-0.047,0.195-0.093,0.297-0.144c0.191-0.094,0.379-0.195,0.562-0.305c0.102-0.058,0.204-0.121,0.305-0.183
		c0.176-0.114,0.344-0.231,0.508-0.352c0.102-0.074,0.199-0.145,0.297-0.223c0.168-0.132,0.328-0.273,0.484-0.422
		c0.082-0.074,0.168-0.144,0.246-0.222c0.235-0.227,0.453-0.465,0.66-0.715c4.559-5.535,11.727-11.512,19.977-8.551
		C247.113,113.398,253.609,124.64,253.609,136.461L253.609,136.461z M155.754,161.769H95.707c-1.977-4.344-3.008-9.082-3.008-13.933
		c0-18.583,15.121-33.704,33.707-33.704c9.61,0,18.715,4.118,25.067,11.184c-0.797,3.648-1.211,7.379-1.211,11.145
		C150.262,145.234,152.152,153.871,155.754,161.769L155.754,161.769z M357.203,286.023c0,6.195-5.039,11.234-11.234,11.234H63.629
		c-6.195,0-11.234-5.039-11.234-11.234v-3.973c0-6.195,5.039-11.234,11.234-11.234h282.34c6.195,0,11.234,5.039,11.234,11.234
		V286.023z M379.637,206.925h-40.953c-5.168,0-9.36,4.196-9.36,9.364c0,5.172,4.192,9.363,9.36,9.363h24.523
		c6.195,0,11.234,5.039,11.234,11.234v3.969c0,6.195-5.039,11.234-11.234,11.234H46.391c-6.196,0-11.235-5.039-11.235-11.234v-3.969
		c0-6.195,5.039-11.234,11.235-11.234h220.824c5.172,0,9.363-4.195,9.363-9.363c0-5.172-4.191-9.364-9.363-9.364H29.961
		c-6.195,0-11.234-5.039-11.234-11.234v-3.961c0-6.195,5.039-11.234,11.234-11.234h60.215c0.004,0,0.012,0,0.015,0
		c0.004,0,0.008,0,0.012,0h72.406c0.004,0,0.008,0,0.012,0s0.012,0,0.016,0h162.476c0.012,0,0.02,0.004,0.032,0.004
		c0.015,0,0.031-0.004,0.043-0.004h54.449c6.195,0,11.234,5.039,11.234,11.234v3.961
		C390.871,201.886,385.832,206.925,379.637,206.925L379.637,206.925z M379.637,206.925"/>
	<path style="fill:#FF9016;" d="M308.727,206.925h-7.18c-5.172,0-9.363,4.196-9.363,9.364c0,5.172,4.191,9.363,9.363,9.363h7.18
		c5.168,0,9.359-4.195,9.359-9.363C318.086,211.117,313.895,206.925,308.727,206.925L308.727,206.925z M308.727,206.925"/>
</g>
</svg>
