<svg xmlns="http://www.w3.org/2000/svg" viewBox="0 0 413.6 413.6"><defs><style>.cls-1{fill:#fff;stroke:#fff;stroke-miterlimit:10;stroke-width:4px;}</style></defs><title>boleta</title><g id="Capa_2" data-name="Capa 2"><g id="Capa_1-2" data-name="Capa 1"><path class="cls-1" d="M329.68,261.41a13.66,13.66,0,0,1,13.65,13.66,6.83,6.83,0,0,0,13.66,0,27.28,27.28,0,0,0-20.48-26.34v-1a6.83,6.83,0,1,0-13.65,0v1a27.25,27.25,0,0,0,6.82,53.64A13.66,13.66,0,1,1,316,316a6.83,6.83,0,1,0-13.65,0,27.27,27.27,0,0,0,20.48,26.33v1a6.83,6.83,0,0,0,13.65,0v-1a27.25,27.25,0,0,0-6.83-53.64,13.66,13.66,0,0,1,0-27.31Z"/><path class="cls-1" d="M322.86,152.19a6.83,6.83,0,0,0,0-13.66h-41a6.83,6.83,0,0,0,0,13.66Z"/><path class="cls-1" d="M275.07,295.55a6.83,6.83,0,0,0-6.83-6.83H206.8a6.83,6.83,0,1,0,0,13.65h61.44a6.82,6.82,0,0,0,6.83-6.82Z"/><path class="cls-1" d="M172.67,152.19h81.92a6.83,6.83,0,0,0,0-13.66H172.67a6.83,6.83,0,1,0,0,13.66Z"/><path class="cls-1" d="M377.46,56.61H138.53a6.83,6.83,0,0,0,0,13.65H377.47a20.51,20.51,0,0,1,20.47,20.49V397.94H124.88V90.75a34.14,34.14,0,1,0-68.27,0v232.1a20.48,20.48,0,0,1-41,0V15.65H288.72V36.13a6.83,6.83,0,1,0,13.65,0V8.83A6.82,6.82,0,0,0,295.55,2H8.83A6.83,6.83,0,0,0,2,8.83v314a34.14,34.14,0,1,0,68.27,0V90.75a20.48,20.48,0,1,1,41,0V343.33H77.09a6.83,6.83,0,0,0,0,13.65h34.14v47.79a6.82,6.82,0,0,0,6.82,6.83H404.77a6.83,6.83,0,0,0,6.83-6.83v-314a34.17,34.17,0,0,0-34.14-34.14Z"/><path class="cls-1" d="M172.67,193.14H350.16a6.83,6.83,0,1,0,0-13.65H172.67a6.83,6.83,0,1,0,0,13.65Z"/><path class="cls-1" d="M206.8,329.68a6.83,6.83,0,1,0,0,13.65h54.61a6.83,6.83,0,1,0,0-13.65Z"/><path class="cls-1" d="M172.67,343.33h6.82a6.83,6.83,0,1,0,0-13.65h-6.82a6.83,6.83,0,1,0,0,13.65Z"/><path class="cls-1" d="M172.67,302.37h6.82a6.83,6.83,0,1,0,0-13.65h-6.82a6.83,6.83,0,1,0,0,13.65Z"/><path class="cls-1" d="M206.8,261.41h47.79a6.83,6.83,0,0,0,0-13.65H206.8a6.83,6.83,0,1,0,0,13.65Z"/><path class="cls-1" d="M172.67,261.41h6.82a6.83,6.83,0,1,0,0-13.65h-6.82a6.83,6.83,0,1,0,0,13.65Z"/></g></g></svg>