<svg xmlns="http://www.w3.org/2000/svg" viewBox="0 0 242.31 191.97"><defs><style>.cls-1{fill:#0079be;}.cls-2{fill:#fff;}</style></defs><title>diners-club</title><g id="Capa_2" data-name="Capa 2"><g id="Layer_1" data-name="Layer 1"><g id="_Layer_1" data-name=" #Layer_1"><path class="cls-1" d="M142,192c52.47.25,100.36-42.79,100.36-95.15C242.31,39.56,194.42,0,142,0H96.8C43.7,0,0,39.57,0,96.82c0,52.37,43.7,95.4,96.8,95.15Z"/><path class="cls-2" d="M97,7.93a87.88,87.88,0,1,0,87.86,87.88A87.88,87.88,0,0,0,97,7.93ZM41.33,95.81h0a55.79,55.79,0,0,1,35.75-52v104A55.76,55.76,0,0,1,41.33,95.81Zm75.61,52h0v-104a55.66,55.66,0,0,1,0,104Z"/><path class="cls-1" d="M142,192c52.47.25,100.36-42.79,100.36-95.15C242.31,39.56,194.42,0,142,0H96.8C43.7,0,0,39.57,0,96.82c0,52.37,43.7,95.4,96.8,95.15Z"/><path class="cls-2" d="M97,7.93a87.88,87.88,0,1,0,87.86,87.88A87.88,87.88,0,0,0,97,7.93ZM41.33,95.81h0a55.79,55.79,0,0,1,35.75-52v104A55.76,55.76,0,0,1,41.33,95.81Zm75.61,52h0v-104a55.66,55.66,0,0,1,0,104Z"/></g></g></g></svg>