<svg xmlns="http://www.w3.org/2000/svg" xmlns:xlink="http://www.w3.org/1999/xlink" viewBox="0 0 1923.07 450.52"><defs><style>.cls-1{fill:none;}.cls-2{fill:#ffb819;}.cls-3{fill:#ffbd30;}.cls-4{fill:url(#Nueva_muestra_de_motivo_3);}</style><pattern id="Nueva_muestra_de_motivo_3" data-name="Nueva muestra de motivo 3" width="300" height="300" patternUnits="userSpaceOnUse" viewBox="0 0 300 300"><rect class="cls-1" width="300" height="300"/><path class="cls-2" d="M194.85,1.11A22.66,22.66,0,0,1,192.46,0h13.34a9.5,9.5,0,0,0,1.67,2.11A10.48,10.48,0,0,0,221,2.76a1.24,1.24,0,0,0,.57-1.25c7.68,7,15.2,14.11,23.6,20.16-8.57,12.22-19.46,23.1-35,24.76-1.9-5.08-1.66-11-3.29-16.21,5.6-1.25,3.56-7.57.64-10.59a8.14,8.14,0,0,0-6.27-2.8c-2.07.13-3.47,1.66-4.37,3.43-2.28-2.21-1.29-5.15,1.55-7.87s5.16-7.6.77-10a6.19,6.19,0,0,0-2.28-.58,10.52,10.52,0,0,1-1.88-.6Zm21.62,21.66c.32,4.87,5.66,8.77,10.28,8.42,5.41-.41,7.54-6.69,6.63-11.23a1.25,1.25,0,0,0-.21-.91c-2.38-3.74-6.33-6.47-10.89-4.93A8.45,8.45,0,0,0,216.47,22.77Z"/><path class="cls-2" d="M219,.46a1.5,1.5,0,0,1,1-.29l-.2-.18H209.58c.11.09.21.19.33.28A7.49,7.49,0,0,0,219,.46Z"/><path class="cls-2" d="M226.24,28.23c3.74-.63,4.85-4.5,4.17-7.8l0-.19c-1.52-2.33-4.31-4.45-7.23-3.27a5.5,5.5,0,0,0-3.75,4.86C219.4,25,223,28.78,226.24,28.23Z"/><path class="cls-2" d="M206.13,51.63c-.23,3.17,2.65,6.4,5.56,4.68a1.54,1.54,0,0,1-.18-.49,11.58,11.58,0,0,0-2.35-5.47C207.89,48.94,206.26,49.82,206.13,51.63Z"/><path class="cls-2" d="M239,45.53c4.11-2.44,9.4-5.55,12.14-9.66,1.9-2.85,2.8-13.74-3.5-12.62-8.75,12.52-20,23.72-35.62,26a14.4,14.4,0,0,1,2.06,4.6C222.71,52,231.4,50.06,239,45.53Z"/><path class="cls-2" d="M204.17,25a14.29,14.29,0,0,1,1.55,2.43,1.58,1.58,0,0,1,.41-.14c1.32-.26,1.56-.91,1.27-2.12a8.16,8.16,0,0,0-2.4-3.8c-.86-.82-2.28-1.8-3.49-1.59a3.09,3.09,0,0,0-2.16,2A12.83,12.83,0,0,1,204.17,25Z"/><path class="cls-2" d="M200.83,26.24c1.07,7.44,1.5,15.05,3.39,22.33a5.17,5.17,0,0,1,2.82-2c-1.82-6-1.08-13-4.24-18.33A6.69,6.69,0,0,0,200.83,26.24Z"/><path class="cls-2" d="M198.19,8.13c1.32-2.49,0-3.12-1.38-3.33a21.51,21.51,0,0,1,.82,4.15A5.36,5.36,0,0,0,198.19,8.13Z"/><path class="cls-2" d="M292.93,19.91A104.64,104.64,0,0,1,300,34.74V0H274.56C281.87,5.83,288.23,11.61,292.93,19.91Z"/><path class="cls-2" d="M299,132.09a32.28,32.28,0,0,1-5.91-9.64,65.39,65.39,0,0,1-4.59,4.83v0c1.27,6.3,5.35,10.51,9.58,14.91a35.06,35.06,0,0,0,1.95-4.29v-5.4A1.48,1.48,0,0,1,299,132.09Z"/><path class="cls-2" d="M300,215.36V183.19C288.43,188.61,293.64,203.88,300,215.36Z"/><path class="cls-2" d="M299.73,115.12c-.39-.74-.79-1.52-1.18-2.32a23.46,23.46,0,0,1-3.38,6.89,32.76,32.76,0,0,0,4.84,9V115.46A1.32,1.32,0,0,1,299.73,115.12Z"/><path class="cls-2" d="M273.77,299.37l.8.63H300v-4C290.94,294.08,281.51,294,273.77,299.37Z"/><path class="cls-2" d="M278.08,27.32c-1.14,3.82,2.84,18.37,6.74,13.4C287.48,37.34,282.07,24.89,278.08,27.32Z"/><path class="cls-2" d="M297.5,36.81a61.22,61.22,0,0,1,2.5,8.34V56.79a8.44,8.44,0,0,1-5.91,5.66c-.9.14-1.8.25-2.7.33a1.58,1.58,0,0,0-.66.2,14.13,14.13,0,0,1-4.65-.64c-11.42-3.64-17.32-19.21-20-29.58-2.38-9.12-4.79-25.83,5.08-31.68,6.58,5.18,12.74,10.05,17.31,17.19A95,95,0,0,1,297.5,36.81Zm-21.11-12a1.19,1.19,0,0,0-.73.61c-.11.11-.23.2-.34.32a1.42,1.42,0,0,0-.31,1.53c-1,4.2.5,9.16,2.26,12.84,2,4.16,6.49,6.79,9.91,2.44C291.74,36.73,283.46,19.65,276.39,24.78Z"/><path class="cls-2" d="M300,109V94.59c-.67,1-1.33,2-2,3.08C297,101.19,298.35,105.31,300,109Z"/><path class="cls-2" d="M282,111.74h0c0,5.39-.35,10.64,1.51,15.71,5.35-4.92,11.89-10.67,12.54-18.11a1.46,1.46,0,0,1,.34-.92,28.1,28.1,0,0,1-1.87-5.91C291.36,107.25,288,111.3,282,111.74Z"/><path class="cls-2" d="M295.19,96.65a10.65,10.65,0,0,1,1-2.37c-7.14,1.81-15.29,6.93-17.39,14C287.23,110.47,291.28,103.23,295.19,96.65Z"/><path class="cls-2" d="M122.13,103.28c6.91.3,13.84.2,18,6.62,2.12,3.31,1.11,8.49-3.4,8.92-4.69.45-7.7-2.6-9.31-6.44-2.39,3.79-3.62,8.43-.54,12.34A17.4,17.4,0,0,0,138,130.84c9.77,1.38,18.5-3.36,23.09-12.07,4.08-7.75,5.82-17.81,2-26-4.58-9.79-18.5-15.45-23.88-5,6.79-1.38,15.11,6.25,7.57,11.15-14.35,9.32-21.55-23.9-33.35-13.3-3.06,2.75-4.66,7.6-3.09,11.57C112.38,102.24,117.21,103.07,122.13,103.28Z"/><path class="cls-2" d="M257.24,131.3a1.56,1.56,0,0,1-.33-.3c-1.76,1.66-3.16,4.55-5.42,4.5a2.83,2.83,0,0,1-2.19-.87c-1.47-1.51-1.1-1.26-2.62,0-2,1.67-3.57,1.41-5.94.51-1.82-.69-3.52-2-5.55-1.39-1.8.57-3.53,1.37-5.35,1.87-2,.56-5.67-1-6.85.43-3.16,3.9-7.57,1.59-10.27-1.48-4.17,3.12-9.11,6.13-11.49.86a7.18,7.18,0,0,1-4.11,1.53c-1.68,0-2.94-1.64-4.52-2a1.43,1.43,0,0,1-.64-.34c-1-.38-2.39-.49-3.46-.93a18.18,18.18,0,0,1-4.6,1.77h-.13c-11.49,13.63,22.23,12,28.4,11.79,9.31-.35,18.62-1,27.86-2.14,4.76-.61,10.51-.71,14.82-3.08C259.5,139.47,263.24,135.35,257.24,131.3Z"/><path class="cls-2" d="M186.76,117.7a1.57,1.57,0,0,0-.66-.17,58.67,58.67,0,0,1,5.74-20.4,16.67,16.67,0,0,1,3.11,2.42c1.38,1.35,3.5-.77,2.12-2.12a19.48,19.48,0,0,0-3.78-2.93,39,39,0,0,1,8.31-10c2.66.38,5.35.52,8,.93,1.89.3,2.7-2.59.8-2.89s-3.57-.43-5.36-.61a35.63,35.63,0,0,1,13.16-5.19,25.55,25.55,0,0,1,5.33-.41l0,.16c0,1.85-.47,3.65-.5,5.5s3,1.93,3,0,.45-3.59.49-5.41a34.4,34.4,0,0,1,18.08,8.64,28.33,28.33,0,0,1,3.41,3.7,1.63,1.63,0,0,0-.28.31c-1.08,1.57-2.42,2.93-3.5,4.5s1.5,3.1,2.59,1.51c.9-1.32,2-2.5,3-3.77,4.42,7.22,5.49,16.08,4.3,24.61a1.68,1.68,0,0,0,0,.34c-9.5,5.68-21.92,6.56-32.66,6.81C210,123.52,197.11,122.83,186.76,117.7Zm51-14.41c1.63,1.06,3.37,1.93,5,3s3.13-1.54,1.51-2.59-3.37-1.93-5-3S236.13,102.24,237.74,103.3ZM231,91a16.73,16.73,0,0,0,4.9-1.05c1.83-.61,1-3.51-.8-2.89A14.14,14.14,0,0,1,231,88C229.07,88,229.06,91,231,91Zm-5.45,8.77A12.41,12.41,0,0,1,226,104c0,1,3,1,3,0a16.8,16.8,0,0,0-.55-5.15A1.52,1.52,0,0,0,225.55,99.77Zm-10.85-12a15.82,15.82,0,0,1,2.35,4.64,1.5,1.5,0,0,0,2.89-.8,18.22,18.22,0,0,0-2.65-5.36C216.23,84.64,213.63,86.14,214.71,87.76Zm-1.91,18.5c.64-1.17,2.29-2.18,3.46-3,1.6-1.07.1-3.67-1.51-2.59s-3.58,2.31-4.54,4S211.86,108,212.79,106.26ZM203,92a11.92,11.92,0,0,0,1.71,6.26c1,1.63,3.63.13,2.59-1.51A8.92,8.92,0,0,1,206,92,1.5,1.5,0,0,0,203,92Zm-6.45,13.9a39.92,39.92,0,0,0,2.65,4.86c.89,1.72,3.48.2,2.59-1.51a35,35,0,0,1-2.35-4.14C198.8,103.29,195.9,104.07,196.55,105.9Z"/><path class="cls-2" d="M143.7,160.07c1.89-.1,3.84-.2,5.81-.25,3.12-1.86,8-3.27,9.27-6.85a27.3,27.3,0,0,0-7.63,2.17,1.53,1.53,0,0,1-2.21-1.36c-.17-1.79-.19-3.59-.41-5.36-.74,1.84-1.41,3.72-2.15,5.57a1.52,1.52,0,0,1-2.53.59c-1.85-1.66-3.33-4-5.63-4.9a28.21,28.21,0,0,0,5.29,10.1A1.72,1.72,0,0,1,143.7,160.07Z"/><path class="cls-2" d="M185,128.5c.06,1.18.14,2.3.13,3.42.89-.36,1.76-.8,2.61-1.22a1.55,1.55,0,0,1,2.05.54c-.9-1.2,1.42,0,2.31.28a11.89,11.89,0,0,1,1.76.64l0,0c3,.88,3.49,2.52,7-.25a1.52,1.52,0,0,1,2.51.66c1.41,5.72,6.21.59,8.8-1.4a1.51,1.51,0,0,1,2.05.54c.7,1,4.17,5.18,6,2.92.39-.49,1.26-1.93,1.95-2.23,2.28-1,4,1.09,6,.54,5.1-1.42,7.56-3.15,12.6-1,2.57,1.09,3.45.79,5.27-1A3.09,3.09,0,0,1,248,130c2.78,0,2.68,3.84,5.39.11,3.67-5.06,10.58-2.88,16.07-4.45a54.25,54.25,0,0,0-11.86-6.71,1.51,1.51,0,0,1-.81-.68l0,0c-10,6.6-23.72,7.8-35.38,8-11.95.15-25.23-.55-36.13-6a1.46,1.46,0,0,1-.51-.4l-.27,0a1.19,1.19,0,0,1-1.07,1c-3,.49-6.42,4-7.55,7.11a45.05,45.05,0,0,0,7.25-1A1.53,1.53,0,0,1,185,128.5Z"/><path class="cls-2" d="M170,168.52c6,5.56,7.71,15,5.43,22.53-4.74,15.74-26.16,19.21-39.6,14.94-12.34-3.92-24.78-14.41-26.2-27.93-.77-7.35,2.34-14.75,8.79-18.49,6.82-4,16-2.66,21.7,2.6a1.65,1.65,0,0,0,.32.23,1.24,1.24,0,0,0,1.28.76c2.5-.11,5.09-.29,7.67-.36a1.21,1.21,0,0,0,.93,0C157.49,162.64,164.56,163.41,170,168.52ZM125.78,163c-8.58,6.79-10.9,19.53-2.94,27.72,1.35,1.39,3.55-.65,2.2-2-6.88-7.09-4.52-17.7,2.79-23.48C129.34,164,127.28,161.8,125.78,163Z"/><path class="cls-2" d="M66.6,96.3a2.07,2.07,0,0,1-.6.24c-.16,0-.68.25-.65.23A3,3,0,0,0,65,97l0,0-.13.19-.05.14,0,.2c0,.1,0,.2,0,.3l0,.17c0,.1.31.63.15.38a2.24,2.24,0,0,0,.8.92,1.25,1.25,0,0,0,.71.3h.29c.34-.13.07,0,.37-.22a2.19,2.19,0,0,0,.71-1.66A2,2,0,0,0,66.6,96.3Z"/><path class="cls-2" d="M78.06,93.85l.21.17a33.86,33.86,0,0,1-17.64,18,1.68,1.68,0,0,0-.36-.13c-7.84-1.72-13-10.92-15.33-19.25a1.6,1.6,0,0,0,.28-.09C55.45,88,69.17,85.12,78.06,93.85Zm-10.27-.31a1.4,1.4,0,0,0-1.37.1,1.13,1.13,0,0,0-.73-.1c-2.13.49-3.89,1.73-3.94,4.08a5.23,5.23,0,0,0,2.45,4.26,4,4,0,0,0,5.32-.65A4.8,4.8,0,0,0,67.79,93.55Z"/><path class="cls-2" d="M207.21,289.53l.07-.06c-1.87-1.41-3.78-2.78-5.73-4.07-.91-.6-5.06-4-6.08-3.7a34.82,34.82,0,0,1-3.58.94c-1.12.26-5,2.38-2.67,2.93a12.05,12.05,0,0,1,3,1c2,1.06,8,4.34,4.23,7.39-1.36,1.09-3,1.13-3.94,2.86-.38.75-.81,1.38-1.25,2.09-.14.22.39.62,1.16,1h13.34C203.88,296.67,204.49,292.66,207.21,289.53Z"/><path class="cls-2" d="M209.58,300h10.26c-3.33-3-6.71-5.93-10.21-8.7C207.37,293.92,206.74,297.59,209.58,300Z"/><path class="cls-2" d="M236.33,148.55c-7.42.79-14.86,1.35-22.31,1.63-7.62.29-17.07,1.51-25.08-.49,1.75,6.44,7.25,8.65,14,9.14,6.51.48,13.08.68,19.61.69,11,0,34.38.87,33.67-14.82q-.67.33-1.38.61C249.14,147.59,242.41,147.9,236.33,148.55Z"/><path class="cls-2" d="M59.49,297.22a1.5,1.5,0,0,1-1-1.85c1-3.53,2.55-6.87,2.26-10.51-3.9,1.95-6.41,6.12-9.12,9.39A30.15,30.15,0,0,1,45.52,300H65.3C64.89,298,61,297.48,59.49,297.22Z"/><path class="cls-2" d="M257.43,203.34c2.83,4.13,2.86,9.5,1.42,14.11-3,9.5-14.72,13.16-23,8.28-11.27-6.66-10.1-26.77,2.46-29.82a1.28,1.28,0,0,0,1.07,0,11.35,11.35,0,0,1,1.48-.42c.37,0,.74,0,1.13,0a1.41,1.41,0,0,0,.81-.22C248.49,195,254.27,198.72,257.43,203.34Zm-15,14.22c-6.29-1.23-5.21-10.34-1.84-14,1.31-1.42-.81-3.55-2.12-2.12-4.82,5.22-5.51,17.31,3.16,19C243.49,220.82,244.3,217.93,242.4,217.55Z"/><path class="cls-2" d="M277.22,201.22c2.41,11,.13,21.91-4.46,31.94-2,4.31-4.44,8.54-8.43,11.27-5.31,3.65-12.37,1.22-18.25.94-11.11-.52-21.46,12.13-29.85-1.1-2.53-4-3.74-8.79-5.76-13-2.25-4.73-6.29-7.94-9.8-11.69s-6.36-8-6.51-13.24c-.16-6,4.4-11.73,8.17-15.88,7.79-8.57,19.34-13.28,30.71-14.36,8.39.16,16.86-.12,25.05,2C269.41,180.94,274.84,190.44,277.22,201.22Zm-36.89-8.68c-18.75,1.28-20.2,30.41-3.5,37,11,4.35,22.66-2.1,25.49-13.36C265.45,203.8,253.11,189.5,240.33,192.55Z"/><path class="cls-2" d="M41.48,68.7A17.78,17.78,0,0,1,34,65.9c.72,3.39,3.61,6.06,6.73,7.7A48.45,48.45,0,0,1,41.48,68.7Z"/><path class="cls-2" d="M105.7,232.32c-2.83-1.24-5.92-2.06-8.59-3.62-2.87-1.67-4.51-5.73-6.92-8a50.36,50.36,0,0,0-7.2-5.09c-4.09-2.69-6.14-6.18-8.67-10.24-4.27-6.85-10.94-12.54-7.88-20.87l.12-.08c9.93-7.77,17.53,4.35,23.65,11,3.45,3.74,9.55,5.27,12,9.64,1.49,2.71,2.1,5.66,3.9,8.26,2,2.95,5.34,5.19,7.81,7.72a12,12,0,0,1,3.86,8.46C117.66,236.51,109.45,234,105.7,232.32ZM78.38,198.25c-1.42.91-1.69-.46-2.1-1.69a23.84,23.84,0,0,0-1.39-4.3c-.93-1.68-3.68-.48-2.74,1.21,1.06,1.91,1.07,4.24,2.17,6.14,1.41,2.44,3.78,2.36,6,1C81.9,199.53,80,197.21,78.38,198.25Zm12.28,9.2a1.53,1.53,0,0,0-2.11-.21,3,3,0,0,1-3.15,0,1.5,1.5,0,0,0-1.94.86,1.53,1.53,0,0,0,.86,1.94,5.94,5.94,0,0,0,6.13-.46A1.5,1.5,0,0,0,90.65,207.45Zm7.6.26c-1.55-1.16-3.31,1.27-1.76,2.43,1.71,1.28.66,3.5-.56,4.76s.55,3.71,1.9,2.32C100.43,214.55,101.7,210.29,98.26,207.71ZM107.33,227a6.43,6.43,0,0,0-4.47-2.65c-1.93-.14-2.27,2.84-.34,3a3.49,3.49,0,0,1,2.49,1.56C106.21,230.46,108.54,228.56,107.33,227Z"/><path class="cls-2" d="M134.13,244.33c-10.8-.52-22.3,9.14-15.59,18.77,2-6.65,12.59-10.44,13.39-1.48,1.54,17-31.2,7.89-27.33,23.27,1,4,4.54,7.67,8.79,8.13,5.44.59,8.43-3.29,10.92-7.55,3.49-6,6.64-12.14,14.24-12.78,3.92-.33,8,3,6.3,7.18-1.79,4.36-5.89,5.59-10,5.22,2.24,3.88,5.76,7.14,10.66,6.24a17.4,17.4,0,0,0,10.66-7.05c5.79-8,5.68-17.93.11-26.06C151.27,251,143.19,244.77,134.13,244.33Z"/><path class="cls-2" d="M102.15,153.21a33.16,33.16,0,0,0-2.92-2.44,1.52,1.52,0,0,1,.57-2.71c1.57-.46,3.16-.87,4.74-1.27-2.29-.81-4.56-1.69-6.86-2.51a1.51,1.51,0,0,1-.48-2.56,78.74,78.74,0,0,1,8.48-5.07c-3.57.07-7.14.14-10.7.46-1,.09-2.27-.84-1.7-2a39.16,39.16,0,0,1,5.37-7.43,55.75,55.75,0,0,1-8.43,3.85,1.49,1.49,0,0,1-1.76-1.19,18.75,18.75,0,0,1,0-3.68c-2,2.57-3.9,5.25-4.69,8.36,2.06,4.68,5.74,10.36,5.75,15.79C93.7,151.77,97.91,152.57,102.15,153.21Z"/><path class="cls-2" d="M66.74,166.7c-11.44,2.54-23.34,1-35,1.35,7.15-8.4,14.88-16.29,22.6-24.17,6-6.12,17.76-13.82,25.91-7.51a1.34,1.34,0,0,0,.94.3c2.49,5.54,6.68,11.64,4.53,17.79C83.2,161.66,73.43,165.22,66.74,166.7Zm-18.52-5a18,18,0,0,1-1.09-3.24,1.52,1.52,0,0,0-1.76-1.19A1.51,1.51,0,0,0,44.18,159a22.23,22.23,0,0,0,1.33,4A1.5,1.5,0,0,0,48.22,161.7Zm10.24-1c-1.5-2.71-2-5.76-2.7-8.74-.42-1.88-3.37-1.32-2.94.57.72,3.23,1.32,6.55,2.94,9.47C56.69,163.68,59.4,162.39,58.46,160.69Zm9.74-2.6c-1.24-3.53-3.43-7-3.59-10.79-.08-1.91-3.07-2.14-3-.2.18,4.43,2.44,8.2,3.88,12.3C66.13,161.22,68.83,159.9,68.2,158.1ZM78,156.24c-1.91-5.41-4.64-10.49-5.75-16.17a1.5,1.5,0,0,0-2.94.57c1.16,5.93,4,11.24,6,16.9C76,159.36,78.67,158,78,156.24Z"/><path class="cls-2" d="M197.29,252.41c-2.43-2.57-4.08-5.94-6.69-8.32-4-3.66-8.22-2.17-11.4,1.54a1.56,1.56,0,0,1-.76.5c.21,14.9,18.27,23.55,30.33,27.68a73.23,73.23,0,0,0,23.41,4.3,125.71,125.71,0,0,0,16-1.17,99.11,99.11,0,0,1-31.72-11.59C210.16,261.7,202.35,257.75,197.29,252.41Z"/><path class="cls-2" d="M267.51,300h-43.4c-8.69-7.83-17.48-15.52-27.76-21.29a1.5,1.5,0,0,0-1.5-.13c-3.89,2.41-7.68.72-9.31,5.85-1.07,3.38,2.73,3.83,4.92,4.6,1.15.4,4.43,2.83,2.24,3.54-1.71.55-2.36,1.63-3,3.24-.36,1-1.74,2-1.44,3.2a4.21,4.21,0,0,0,.39,1H68.34c-.22-2.78-3.56-4.53-6.56-5.34,1.25-4.11,2.61-7.88,1.55-12.29a1.51,1.51,0,0,0-1.84-1c-9.06,2.79-11.68,13.88-20.14,17.62v-.08a1.16,1.16,0,0,0-1.06-1.08,1.47,1.47,0,0,0-2.44-.59,10.67,10.67,0,0,1-4.7,2.78H23.42c-7-1.4-14.54-4.94-19.67-6.29-1.24-.32-2.49-.61-3.75-.85V221.43c1.48,2.23,2.92,4.26,4.17,6,7.63,10.66,16.06,20,26.56,27.78,11.7,8.73,25.7,17.95,40.44,20.1C81,276.75,88,271.64,89.56,261.9c1.81-11-4.42-19.34-13.23-23.47C76,225.83,65.85,219.7,54.41,217c-4.91-10.81-12.91-19.9-23.47-23.42a1.37,1.37,0,0,0,.28-1.1C29.31,179.55,11.56,175.31,0,180.1V144.85l.36-.63A46.17,46.17,0,0,0,9.6,150a1.53,1.53,0,0,0,2.2-.9c.24-.63.51-1.23.81-1.83,2.28.93,5.1,2.63,7.59,2s4.39-4.46,5.75-6.44l1,.49a1.52,1.52,0,0,0,2.05-.54,36.21,36.21,0,0,0,4.82-14l.55.06a1.49,1.49,0,0,0,1.45-1.1c1.36-5.81,1-14.56-3-19.6.33-.16.65-.33,1-.51a1.49,1.49,0,0,0,.69-1.69,17.29,17.29,0,0,0-9-9.3,18,18,0,0,0,5.32-4.24,1.53,1.53,0,0,0-.3-2.36A28.81,28.81,0,0,0,0,90.26V64.2A39,39,0,0,0,21.66,49c4.45-6.29,5.44-13.78,7.81-20.92a17,17,0,0,1,1-2.42,1.16,1.16,0,0,0,.89-1.37l0-.14c3.2-5,8.41-7.79,12.31-12.35a1.59,1.59,0,0,0,1.51-2.27q-.46-.91-.89-1.83a1.56,1.56,0,0,0,.85-.11C51.32,4.93,63.08,10,67.46,3a4.91,4.91,0,0,0,.88-3h36.78c-3,.31-4.67,3.43-4.29,6.75-2.88.33-5.35,1.88-4.67,5.44a8.72,8.72,0,0,0,3.48,5c2.29,1.79,5.85,2.3,7.79,4.46a1.62,1.62,0,0,0,.3.26c.19,3,2.15,6.2,4.69,8.72-3.86.83-7.69.78-11.75-1.83a1.19,1.19,0,0,0-1.75.36,1.55,1.55,0,0,0-1.32,1c-4.38-1.36-8-6.68-13-5-3.82,1.31-4,4.75-2.44,7.6-2.52,1.26-3.29,4-1.22,6.84a8.08,8.08,0,0,0,4.93,3C88.94,43.3,92,41.43,95,41a1.53,1.53,0,0,0,1.6,1.54c7.26.2,13.15,6.2,18.75,11.23a1.26,1.26,0,0,0,.11,1c2.91,5.86,6.79,10.29,13.25,12.06,8.26,2.27,18.53-.53,26.73-1.83,13.93-2.21,36.39-7.65,31.8-26.43C183.54,23.38,170.75,9.26,155,6.71a35.75,35.75,0,0,0-33.76,13.65,1.39,1.39,0,0,0-1.35-.21c-1.9.64-4.74-3.68-5.69-4.89a1.83,1.83,0,0,0-.93-.62C112.79,10,112.83,3,108.58.77A6.82,6.82,0,0,0,106.07,0H188.7a14.45,14.45,0,0,0,2.86,3.19,4.57,4.57,0,0,0,1.88,1.08,18.43,18.43,0,0,1,1.35,6.84,1.6,1.6,0,0,0,.1.52,7.81,7.81,0,0,0-1.66,9.43,6.85,6.85,0,0,0,2.72,2.59,1.71,1.71,0,0,0,1.63,1.1c1.54,9.51,1.85,19.26,4.92,28.46a1.19,1.19,0,0,0,.9.86A8.73,8.73,0,0,0,206,58.3c2.51,2.21,5.72,2,8.22-.11a1.35,1.35,0,0,0,.48-1.44c13.63-2.92,26.72-6.93,37-16.92,3.23-3.14,5.29-7.7,3.85-12.2-1.33-4.17-3-7.82-7.46-7.46a1.68,1.68,0,0,0-.7-.33,1.49,1.49,0,0,0-.49-.57c-8.09-5.81-15.4-12.59-22.8-19.26h43.39c-8.68,7.38-6.84,22.81-4.58,32.59,2.83,12.27,9.62,27.92,22.36,32.64a15.05,15.05,0,0,0,9.88.05A45.19,45.19,0,0,0,300,64.2V90.26c-.24.16-.49.3-.73.47a1.59,1.59,0,0,0-.46.48,1.51,1.51,0,0,0-1.19-.3c-9,1.43-20.39,8.42-22,18a1.55,1.55,0,0,0,1,1.84,17.35,17.35,0,0,0,3.2.83c-.89,6.67-.62,12.93,2.24,19.15a1.51,1.51,0,0,0,2.36.3l1.54-1.44c1.86,6.62,6.64,11.15,11.34,16.1a1.51,1.51,0,0,0,2.36-.3c.12-.2.23-.4.35-.6V180.1a17.09,17.09,0,0,0-7.13,5.22c-7.93,10.32.06,25.48,7.13,36.11v71.43c-10.26-2-21.22-1.37-29.67,5.36l-.07.07a1.44,1.44,0,0,0-.62.2A15.25,15.25,0,0,0,267.51,300Zm4.92-116.73c-6.37-7.94-17.51-9.5-27-10-3.78-.19-7.58-.18-11.36-.23a1.46,1.46,0,0,0-.57-.06l-.39,0L231,173a1.34,1.34,0,0,0-1.08.43,52.66,52.66,0,0,0-27.57,12.75c-7,6.28-14.15,17-9.87,26.63,2.09,4.72,5.58,8.46,9.19,12.06,5.18,5.16,7.13,10.59,10.07,17.11,1.85,4.1,4.51,8.95,9,10.67,5.25,2,10.29.25,15.3-1.71,3.35-1.31,6.4-2.48,10.07-2.58,3.2-.08,6.42.72,9.61,1A17.08,17.08,0,0,0,269,244.5c7.1-6.67,10.7-18.81,11.86-28.12C282.25,205.08,279.63,192.26,272.43,183.27ZM172.5,129.5c-.09.86.75,1.44,1.5,1.5a29.43,29.43,0,0,0,8.12-.72,17.54,17.54,0,0,1,0,2.48c-4.64,5.12-5.77,11,1.08,14.76a21.68,21.68,0,0,0,2.44,1.12c1,5.9,4,9.94,9.93,12,8.18,2.77,18.46,1.85,27,1.93,13.78.12,38.67-.12,36.48-19.55,4.68-3.57,6.17-9,.95-13.33,4.58-.87,8.85.23,13.27-2.34a1.52,1.52,0,0,0,0-2.59c-4.56-3.33-9.54-6.66-14.86-8.65a1.23,1.23,0,0,0-1.21.12l-.13-.2c1.41-11.43-.8-22.22-8.57-31.06-7-7.92-17.8-12-28.2-11.42s-20.41,7.1-26.88,14.91C186.53,96.71,184,107.55,183,118a1.63,1.63,0,0,0-.44,0C177.72,118.85,173,124.81,172.5,129.5Zm-16.92,30.4c3.38-1.89,6.38-4.12,6.52-8.54a1.51,1.51,0,0,0-1.46-1.54,28.47,28.47,0,0,0-8.86,1.87,24.86,24.86,0,0,0-1.55-8.45,1.51,1.51,0,0,0-2.59-.09,74.29,74.29,0,0,0-3.26,7.75c-2.31-2.35-4.38-4.61-8.09-4.62a1.52,1.52,0,0,0-1.5,1.85,27.57,27.57,0,0,0,3.28,8.91c-12.27-6.72-28.83-.1-31.1,14.9-2.62,17.34,12,30.88,26.9,36.52,16,6,38,.55,44.46-16.55,3.11-8.21.2-18-5.18-24.47C168.69,162,162.26,160.31,155.58,159.9ZM115.4,105.37c5.14,1.58,10.76.65,16,1.68,2.61.51,9.49,5.14,6.13,8.26-3.9,3.62-7.7-4.14-8.21-6.6-.37-1.74-2.95-1.58-3,0-7.6,9.81-3.77,20.55,7.93,24.34s23.29-1.85,29.13-12.13,7-23.92-.18-33.9a19.54,19.54,0,0,0-16-8.14c-6.51.08-10.44,5.62-12.1,11.26a1.2,1.2,0,0,0-.2.92,1.26,1.26,0,0,0,1.27,1.21,1.48,1.48,0,0,0,1.43-.45c4.31-4.55,14.51,3.25,4.87,5.59C136.63,98.79,132,90.77,129,87c-5.26-6.42-13.71-8.91-19.49-1.56C104.05,92.39,107.08,102.81,115.4,105.37ZM40.46,76.81a73.54,73.54,0,0,0,.08,8.35c.7,10.92,7.4,27.12,19.24,29.72h.07a1.29,1.29,0,0,0,1.42.17C72.92,109.92,81,100.1,83,87.64c15.7,6.71,7.31-28.07,6.52-34.56A1.51,1.51,0,0,0,87.14,52c-3.49,2.74-6.31,6.15-9.61,9.09A27,27,0,0,0,66,50.2c2.12-7.33,7.17-13.39,8.63-21a1.52,1.52,0,0,0-1.23-1.73c-10.29-2.63-23.57-.74-32.46,5.16a1.49,1.49,0,0,0-.51,1.75c2.93,6.48,7.74,11.71,11.54,17.66-5.07,3-8.05,8-9.71,13.68-3.17-.08-6.49-2.07-8.88-3.94a1.51,1.51,0,0,0-2.43.92C30.05,69.16,34.91,74.32,40.46,76.81Zm33.31,91c6.38-2.24,12.87-6.9,15.17-13.47.06-.17.1-.35.15-.52,5.74,1.25,11.51,2.28,17.34,3a1.51,1.51,0,0,0,1.24-2.47c-1.47-1.39-2.89-2.81-4.4-4.14,2.28-.59,4.57-1.14,6.83-1.8,1.31-.38,1.77-2.45.21-2.89-3-.85-5.91-1.94-8.82-3a72.8,72.8,0,0,1,12.1-6.18c1.35-.54,1-2.92-.55-2.85-5.21.23-10.42.18-15.62.49,2.13-3.14,5-5.76,7.1-8.93.67-1-.19-2.73-1.52-2.33-4.13,1.27-7.69,3.76-11.67,5.32a19.64,19.64,0,0,1,1.07-5.54,1.5,1.5,0,0,0-1.3-2,1.44,1.44,0,0,0-2,.38c-2.82,3.91-6.53,7.7-8,12.4-7.81-5.23-17.48-.45-24.33,4.5-5.47,4-10,9.45-14.62,14.29C37,157.51,32,163,27.19,168.82c-.95,1.14.37,2.4,1.52,2.33C43.78,170.16,59.19,172.92,73.77,167.8Zm22.72,64c3.77,1.81,7.86,3.38,11.79,4.81,5.79,2.1,13.23-1.15,12.46-8.21-1-8.8-9.54-11.9-13.53-18.89-1.94-3.39-2.21-6.87-5.36-9.48s-6.53-3.61-9.3-6.51c-7.29-7.65-15.42-19.67-26.52-12.38a1.54,1.54,0,0,0-1.77.84c-4,8.32,0,14.49,5,21.27,2.76,3.76,4.77,8.91,8.38,12,4,3.4,8.83,5.61,12.37,9.53C92.2,227.2,93.35,230.27,96.49,231.78Zm62.64,25.46c-6.38-10-17.89-17.35-30.06-15.68a19.54,19.54,0,0,0-14.65,10.3c-3,5.8.09,11.86,4.31,16a1.2,1.2,0,0,0,.72.61,1.26,1.26,0,0,0,1.66-.56,1.48,1.48,0,0,0,.27-1.47c-2-5.93,9.65-11.31,7.21-1.69-1.48,5.85-10.73,6.17-15.46,7.13-8.14,1.65-14.29,8-10.48,16.5,3.58,8,14.21,10.23,20.35,4.07,3.8-3.81,5.6-9.2,9-13.37,1.67-2.07,9-6,10.17-1.56,1.38,5.14-7.26,4.87-9.67,4.18-1.71-.49-2.78,1.87-1.44,2.64,5.12,11.3,16.41,12.93,25.22,4.36S165.49,267.21,159.13,257.25ZM259.8,275.43c-19.22-1.46-35.94-8.49-51.94-19-4.11-2.69-8.15-5.46-11.11-9.42-1.9-2.54-3.75-5.65-6.71-7.09a9.2,9.2,0,0,0-9.27.48c.58-7.55-3.27-14.67-5.58-21.66-.6-1.84-3.3-.52-2.71,1.29,2,6,5.23,12.1,5.34,18.51-4.18-7.6-10.33-13.9-14.92-21.29-1-1.63-3.73-.35-2.71,1.29,4.15,6.69,9.61,12.52,13.71,19.21a52.38,52.38,0,0,0-4.5-3.15,65.27,65.27,0,0,1-15-13.21c-1.24-1.49-3.52.46-2.28,1.95,3.34,4,7.11,8.15,11.44,11.11,3.14,2.15,7.52,4.11,10.14,7.19-5.48-2-11.31-3.33-15.83-7.08-1.49-1.24-3.16,1.26-1.69,2.48,5.55,4.6,12.85,5.51,19.24,8.46v.07c0,15.71,16.42,24.76,29.14,29.85A80.08,80.08,0,0,0,229,281c10.37.69,20.79-1.28,31-2.6C261.71,278.18,261.47,275.56,259.8,275.43Z"/><path class="cls-2" d="M83.36,84.5c7.88,3.74,6.58-8.71,6.05-13.55-.54-5-1.7-9.88-2.49-14.82-2.72,2.46-5.15,5.23-7.92,7.65A41.53,41.53,0,0,1,83.36,84.5Z"/><path class="cls-2" d="M67.53,81.53a1.51,1.51,0,0,1-2.37-.06c-2.16-3.39-7.9-4.36-8.91.55a1.52,1.52,0,0,1-2.43.91c-3.74-3-7.09-1.19-9.09,2.64a1.45,1.45,0,0,1-1.06.79c.13,1.07.3,2.2.55,3.38,10.92-4.87,25.47-7.54,35.09,1.18a30.47,30.47,0,0,0,.91-4.71,1.46,1.46,0,0,1-.37-.58C78.29,81.33,71.1,77.36,67.53,81.53Z"/><path class="cls-2" d="M0,296v4H13.67l-1.34-.46A104.94,104.94,0,0,0,0,296Z"/><path class="cls-2" d="M50.54,56.81a15.33,15.33,0,0,1,3.8-2.69,1.63,1.63,0,0,0,.43-2.56,1.49,1.49,0,0,0-.23-1c-3.46-5.48-7.89-10.32-10.79-16.14,7.76-4.65,18.73-6.13,27.59-4.32-1.82,7.17-6.65,13.12-8.52,20.3a1.21,1.21,0,0,0,.44,1.37,1.32,1.32,0,0,0,.82.88,19.78,19.78,0,0,1,5.16,3.16,15,15,0,0,0-7.11,2.84C58.59,55.33,54.57,55.21,50.54,56.81ZM59,43.47c0,1.93,3,1.61,3-.31,0-3.12,0-6.24.33-9.35.17-1.92-2.79-2.42-3-.5C59.09,36.7,59,40.08,59,43.47ZM57.8,48.23c-1.43-4.19-2.84-8.38-4-12.66-.5-1.86-3.29-.76-2.8,1.09,1.14,4.28,2.55,8.47,4,12.66C55.63,51.14,58.42,50.05,57.8,48.23Z"/><path class="cls-2" d="M55.1,69.27c2.72-4,8.29-3.64,11.86-.11,3.16-2.12,6.83-3.19,10.28-2a32.48,32.48,0,0,0-5.13-8.55,1.57,1.57,0,0,1-.68.08c-3.4-.33-6,1.07-8.58,3.07a1.52,1.52,0,0,1-2.1-.33c-4-4.58-8.69-2.69-13,.2a1.46,1.46,0,0,1-.94.26,30.3,30.3,0,0,0-2.53,7.43C48,67.34,52,66.48,55.1,69.27Z"/><path class="cls-2" d="M54,79.48c2.4-4.7,8.88-4.95,12.53-1.09,4.13-3.07,10.27-1.28,13.82,2.52a41.65,41.65,0,0,0-1.74-9.85,1.48,1.48,0,0,1-.92-.3c-3.43-2.46-7.25-.59-10.07,1.6a1.51,1.51,0,0,1-2.1-.33c-2.07-2.74-7.23-4.72-8.62.19-.32,1.14-1.91,1.84-2.69.64-2.77-4.27-7.06-2-10.31.26l-.26.14a57,57,0,0,0-.31,9C46.05,78.72,50,77.31,54,79.48Z"/><path class="cls-2" d="M100.18,32a74.15,74.15,0,0,0-1.92,7.8c6.37.91,11.47,5.4,16.23,9.53,5.24,4.56,13.24,12.55,20.77,8,5.18-3.15,8.58-8.64,7.85-14.88-.89-7.52-6.66-13.37-14.62-12.69C118.35,30.56,109.8,37.47,100.18,32Z"/><path class="cls-2" d="M138.94,29.43c8,5.87,10.1,19,2.8,26.46-6.06,6.21-13.25,7-20.33,2.67a15.92,15.92,0,0,0,13,5.9c6.93-.1,14-1.31,20.85-2.46,7.79-1.32,17.15-2.92,23.7-7.73,6.13-4.5,7.08-11.32,4.48-18.19A49.33,49.33,0,0,0,174,20.61c-.76,3.22-1.78,6.33-4.44,8.56-1.48,1.25-3.17-1.24-1.7-2.47,2.48-2.08,3-5.63,3.64-8.63a33.84,33.84,0,0,0-9.83-6.5,30.87,30.87,0,0,1-1.17,12.36c-.57,1.83-3.52,1.27-2.94-.58a28.88,28.88,0,0,0,1-12.71v-.18a26.5,26.5,0,0,0-5.44-1,37.22,37.22,0,0,0-4.33,0c1,4.47,1.63,9.13.63,13.66-.42,1.88-3.36,1.32-2.94-.58.92-4.14.35-8.44-.61-12.53a1.67,1.67,0,0,1,0-.31A32.41,32.41,0,0,0,119.93,28.4c1.2-.37,2.42-.73,3.67-1C128.63,26.2,134.6,26.24,138.94,29.43Z"/><path class="cls-2" d="M.78,132.32a1.28,1.28,0,0,1-.78.19v5.4a36.76,36.76,0,0,0,1.75-6.33C1.43,131.83,1.12,132.09.78,132.32Z"/><path class="cls-2" d="M115.88,29.69l.39-.12a1.57,1.57,0,0,1,.1-.43,34.21,34.21,0,0,1,3-6c-2.68-.18-5-2.94-6.71-5.12C107.94,21.27,112.38,26.79,115.88,29.69Z"/><path class="cls-2" d="M85.87,28c-2.77.51-1.66,3.11-.31,4.5a1.52,1.52,0,0,1-.86,2.63c-3.41.41-1.62,3.34.59,4.25,3.18,1.31,7-1.26,10.26-1.4.34-1.65.75-3.28,1.21-4.91a19.81,19.81,0,0,1-5.87-3.23C89.48,28.86,87.69,27.65,85.87,28Z"/><path class="cls-2" d="M19.8,141.09a1.5,1.5,0,0,1-1.84,1c-.82-.32-1.6-.68-2.37-1.06A23.59,23.59,0,0,1,14,144.64c1.64.77,3.81,2,5.36,1.78,1.39-.18,3.12-3.66,3.92-4.93l-3.18-1.59C20,140.29,19.89,140.69,19.8,141.09Z"/><path class="cls-2" d="M20.73,110.78a1.6,1.6,0,0,1-.15-.44,17.93,17.93,0,0,1-9-2.81c-.11.28-.26.53-.4.79a38.57,38.57,0,0,1-1,9.56l.24,0c4.36.9,8.67,2,13.1,2.47A22.23,22.23,0,0,0,20.73,110.78Z"/><path class="cls-2" d="M33.13,0h-9.7A20.56,20.56,0,0,0,33.13,0Z"/><path class="cls-2" d="M0,45.15V56.79c0-.14.1-.27.13-.42A25.08,25.08,0,0,0,0,45.15Z"/><path class="cls-2" d="M8.08,112a27.25,27.25,0,0,1-6.3,3.61A1.64,1.64,0,0,1,0,115.46v13.21l.24.31C5.43,124.86,7.58,118.51,8.08,112Z"/><path class="cls-2" d="M8.19,108a1.32,1.32,0,0,1,.71-1.21,4.85,4.85,0,0,0,.4-2.14C9.08,99.24,4.84,96,.13,94.4L0,94.59V109c.55,1.22,1.15,2.39,1.71,3.47C4,111.41,6.7,110,8.19,108Z"/><path class="cls-2" d="M1.57,60.57A39,39,0,0,0,11,55.74l.08-.22c5.1-10.73.09-24-6.5-33C3.44,21,6,19.48,7.18,21c6.31,8.56,10.72,20.41,8.23,31a30,30,0,0,0,6.73-9.91,1.41,1.41,0,0,1-.25-.88c.28-12.47-5.15-25.62-15.26-33.2C5.1,6.93,6.6,4.32,8.14,5.48,17.22,12.3,22.94,23,24.47,34.23c.91-3.81,1.86-7.74,3.71-11-.86-4.18-3.33-7.81-5.09-11.65-.8-1.75,1.78-3.27,2.59-1.51,1.57,3.42,3.49,6.6,4.69,10.09,3.45-4,8.17-6.59,11.41-10.72A35.82,35.82,0,0,1,38.6.53C31.76,5.8,21.31,2.61,13.67,0H0V34.74a64.26,64.26,0,0,1,2.6,8.65C3.76,48.66,4.79,55.72,1.57,60.57Z"/><path class="cls-2" d="M43.2,5.26A1.45,1.45,0,0,1,43.63,5c5-2.14,9-1,14.26-1.2,1.9-.07,7-.4,7.43-3.09a1.83,1.83,0,0,0,0-.69H45.52A19.11,19.11,0,0,1,42,1.92,31.77,31.77,0,0,0,43.2,5.26Z"/><path class="cls-2" d="M20.77,136.89l6.3,3.15a31.18,31.18,0,0,0,3.78-11.61c-2.82-.4-5.62-.89-8.46-1.19A57.91,57.91,0,0,1,20.77,136.89Z"/><path class="cls-2" d="M102.42,9.66c-6.52-.51-1.56,5,1.22,6.42a35.36,35.36,0,0,1,4.71,2.49A7.48,7.48,0,0,1,110.47,16c-.5-3-.68-6.08-1.4-9-.39-1.57-.87-3.71-2.88-4-3-.4-2.75,2.83-2.06,4.7A1.52,1.52,0,0,1,102.42,9.66Z"/><path class="cls-2" d="M12.91,139.63v0a33,33,0,0,1-8.27-7.42,39.52,39.52,0,0,1-2.92,9.32,43.05,43.05,0,0,0,7.89,5.15C10.76,144.32,12.22,142.13,12.91,139.63Z"/><path class="cls-2" d="M17.3,138.6c1.24-5.23,2.73-10.4,2-15.81-3.25-.56-6.47-1.32-9.71-2a1.65,1.65,0,0,1-.27-.09,24.49,24.49,0,0,1-4,7.35A29.7,29.7,0,0,0,17.3,138.6Z"/><path class="cls-2" d="M23.86,110.36A23.81,23.81,0,0,1,26.52,122a1.51,1.51,0,0,1-1.5,1.5c-.89-.07-1.77-.17-2.66-.28,0,.33,0,.66,0,1,3.6.39,7.15,1.07,10.75,1.48.9-5.2.36-12.66-3.32-16.4A26,26,0,0,1,23.86,110.36Z"/><path class="cls-2" d="M9.69,96.86A32.84,32.84,0,0,0,20,95.63l.19-.06a18.55,18.55,0,0,0,7-3.88,25.94,25.94,0,0,0-24.64.47,19.88,19.88,0,0,1,6.85,4.71Z"/><path class="cls-2" d="M33.22,253.33a142.64,142.64,0,0,0,21.15,13.1c6.32,3.09,13.89,6.62,21.12,6.12s10.85-5.86,11.31-12.92c1-15-14.4-22.78-27.75-20.84a1.5,1.5,0,0,1-.42-3,31.63,31.63,0,0,1,14.69,1.39,15.5,15.5,0,0,0-3.13-8.36,1.61,1.61,0,0,1-.7.05c-6.42-.93-13-1.43-18.84,1.85-1.69.95-3.2-1.65-1.51-2.59,5.61-3.14,11.67-3.26,17.81-2.58-8.29-6.51-22.74-7.7-32.06-7.39-1.91.06-2.35-2.91-.42-3a81.9,81.9,0,0,1,16.27,1,50.93,50.93,0,0,0-4.19-7,1.43,1.43,0,0,1-.75-.22c-5.28-3.23-14.06-4.7-19.82-2-1.74.81-3.26-1.77-1.51-2.59,5.13-2.4,12-2.21,17.75-.32-6.39-6.41-14.75-10.21-24.87-8.91a1.5,1.5,0,0,1-.42-3,31.71,31.71,0,0,1,11.31.53C26.76,183.31,14.07,180.36,6,181.51a20.93,20.93,0,0,0-6,1.68v32.18a97.86,97.86,0,0,0,5.87,9.3C13.75,235.67,22.28,245.35,33.22,253.33Z"/><path class="cls-2" d="M11.49,99.87a9.12,9.12,0,0,1,.82,4.63,1.44,1.44,0,0,1,.47.24c4.57,3.43,12.94,3.37,18.28.95A13.24,13.24,0,0,0,20.8,98.54,35,35,0,0,1,11.49,99.87Z"/><path class="cls-3" d="M69.52,101.26a4,4,0,0,1-5.32.65,5.23,5.23,0,0,1-2.45-4.26c.05-2.35,1.81-3.6,3.94-4.08a1.13,1.13,0,0,1,.73.1,1.4,1.4,0,0,1,1.37-.1A4.8,4.8,0,0,1,69.52,101.26Zm-1.67-3.5A2,2,0,0,0,66.6,96.3a2.07,2.07,0,0,1-.6.24c-.16,0-.68.25-.65.23A3,3,0,0,0,65,97l0,0-.13.19-.05.14,0,.2c0,.1,0,.2,0,.3l0,.17c0,.1.31.63.15.38a2.24,2.24,0,0,0,.8.92,1.25,1.25,0,0,0,.71.3h.29c.34-.13.07,0,.37-.22A2.19,2.19,0,0,0,67.85,97.76Z"/><path class="cls-3" d="M109.49,85.47c5.78-7.36,14.23-4.86,19.49,1.56,3.06,3.73,7.66,11.76,13.53,10.34,9.64-2.34-.56-10.14-4.87-5.59a1.48,1.48,0,0,1-1.43.45A1.26,1.26,0,0,1,134.93,91a1.2,1.2,0,0,1,.2-.92c1.66-5.64,5.59-11.18,12.1-11.26a19.54,19.54,0,0,1,16,8.14c7.16,10,6,23.58.18,33.9S145.79,136.76,134.24,133s-15.52-14.53-7.93-24.34c.06-1.54,2.64-1.7,3,0,.52,2.46,4.31,10.22,8.21,6.6,3.36-3.12-3.52-7.75-6.13-8.26-5.25-1-10.87-.1-16-1.68C107.08,102.81,104.05,92.39,109.49,85.47Zm.87,11.68c2,5.08,6.85,5.91,11.78,6.13,6.91.3,13.84.2,18,6.62,2.12,3.31,1.11,8.49-3.4,8.92-4.69.45-7.7-2.6-9.31-6.44-2.39,3.79-3.62,8.43-.54,12.34A17.4,17.4,0,0,0,138,130.84c9.77,1.38,18.5-3.36,23.09-12.07,4.08-7.75,5.82-17.81,2-26-4.58-9.79-18.5-15.45-23.88-5,6.79-1.38,15.11,6.25,7.57,11.15-14.35,9.32-21.55-23.9-33.35-13.3C110.38,88.34,108.78,93.19,110.36,97.16Z"/><path class="cls-3" d="M159.13,257.25c6.36,10,5.82,23-2.88,31.42s-20.1,6.94-25.22-4.36c-1.33-.77-.26-3.13,1.44-2.64,2.41.69,11.05,1,9.67-4.18-1.19-4.43-8.5-.51-10.17,1.56-3.36,4.17-5.17,9.56-9,13.37-6.14,6.16-16.77,4-20.35-4.07-3.8-8.55,2.35-14.85,10.48-16.5,4.73-1,14-1.28,15.46-7.13,2.44-9.62-9.23-4.24-7.21,1.69a1.48,1.48,0,0,1-.27,1.47,1.26,1.26,0,0,1-1.66.56,1.2,1.2,0,0,1-.72-.61c-4.21-4.1-7.28-10.16-4.31-16a19.54,19.54,0,0,1,14.65-10.3C141.24,239.9,152.75,247.24,159.13,257.25Zm-2.91,1c-4.94-7.22-13-13.46-22.09-13.9-10.8-.52-22.3,9.14-15.59,18.77,2-6.65,12.59-10.44,13.39-1.48,1.54,17-31.2,7.89-27.33,23.27,1,4,4.54,7.67,8.79,8.13,5.44.59,8.43-3.29,10.92-7.55,3.49-6,6.64-12.14,14.24-12.78,3.92-.33,8,3,6.3,7.18-1.79,4.36-5.89,5.59-10,5.22,2.24,3.88,5.76,7.14,10.66,6.24a17.4,17.4,0,0,0,10.66-7.05C161.89,276.3,161.78,266.36,156.22,258.23Z"/><path class="cls-3" d="M73.77,167.8c-14.58,5.12-30,2.37-45.07,3.35-1.15.08-2.47-1.18-1.52-2.33C32,163,37,157.51,42.19,152.1c4.65-4.85,9.15-10.34,14.62-14.29,6.84-4.94,16.52-9.72,24.33-4.5,1.47-4.7,5.18-8.48,8-12.4a1.44,1.44,0,0,1,2-.38,1.5,1.5,0,0,1,1.3,2A19.64,19.64,0,0,0,91.34,128c4-1.57,7.54-4.05,11.67-5.32,1.33-.41,2.19,1.32,1.52,2.33-2.12,3.17-5,5.79-7.1,8.93,5.2-.31,10.41-.26,15.62-.49,1.5-.07,1.9,2.31.55,2.85a72.8,72.8,0,0,0-12.1,6.18c2.91,1.09,5.82,2.18,8.82,3,1.56.44,1.1,2.5-.21,2.89-2.26.67-4.55,1.21-6.83,1.8,1.51,1.33,2.93,2.75,4.4,4.14a1.51,1.51,0,0,1-1.24,2.47c-5.83-.73-11.6-1.76-17.34-3-.05.17-.09.35-.15.52C86.65,160.89,80.15,165.56,73.77,167.8Zm10-32.74c2.06,4.68,5.74,10.36,5.75,15.79,4.19.92,8.41,1.72,12.65,2.36a33.16,33.16,0,0,0-2.92-2.44,1.52,1.52,0,0,1,.57-2.71c1.57-.46,3.16-.87,4.74-1.27-2.29-.81-4.56-1.69-6.86-2.51a1.51,1.51,0,0,1-.48-2.56,78.74,78.74,0,0,1,8.48-5.07c-3.57.07-7.14.14-10.7.46-1,.09-2.27-.84-1.7-2a39.16,39.16,0,0,1,5.37-7.43,55.75,55.75,0,0,1-8.43,3.85,1.49,1.49,0,0,1-1.76-1.19,18.75,18.75,0,0,1,0-3.68C86.45,129.27,84.56,132,83.76,135.06Zm-17,31.64c6.69-1.48,16.46-5,19-12.24,2.15-6.15-2-12.24-4.53-17.79a1.34,1.34,0,0,1-.94-.3c-8.14-6.31-19.92,1.4-25.91,7.51-7.72,7.88-15.45,15.76-22.6,24.17C43.4,167.73,55.3,169.23,66.74,166.7Z"/><path class="cls-3" d="M72.28,140.07a1.5,1.5,0,0,0-2.94.57c1.16,5.93,4,11.24,6,16.9.64,1.82,3.34.5,2.7-1.3C76.12,150.82,73.38,145.74,72.28,140.07Z"/><path class="cls-3" d="M64.61,147.3c-.08-1.91-3.07-2.14-3-.2.18,4.43,2.44,8.2,3.88,12.3.64,1.83,3.34.5,2.7-1.3C67,154.56,64.77,151.12,64.61,147.3Z"/><path class="cls-3" d="M55.76,152c-.42-1.88-3.37-1.32-2.94.57.72,3.23,1.32,6.55,2.94,9.47.93,1.69,3.64.39,2.7-1.3C57,158,56.43,154.94,55.76,152Z"/><path class="cls-3" d="M47.13,158.47a1.52,1.52,0,0,0-1.76-1.19A1.51,1.51,0,0,0,44.18,159a22.23,22.23,0,0,0,1.33,4,1.5,1.5,0,0,0,2.7-1.3A18,18,0,0,1,47.13,158.47Z"/><path class="cls-3" d="M108.28,236.59c-3.93-1.43-8-3-11.79-4.81-3.14-1.51-4.29-4.58-6.52-7-3.54-3.92-8.38-6.13-12.37-9.53-3.61-3.08-5.62-8.23-8.38-12-5-6.78-9-13-5-21.27a1.54,1.54,0,0,1,1.77-.84c11.11-7.29,19.23,4.73,26.52,12.38,2.77,2.91,6.31,4,9.3,6.51s3.42,6.09,5.36,9.48c4,7,12.57,10.09,13.53,18.89C121.5,235.44,114.07,238.69,108.28,236.59Zm-2.58-4.27c3.74,1.64,12,4.19,12-2.85a12,12,0,0,0-3.86-8.46c-2.47-2.54-5.78-4.78-7.81-7.72-1.79-2.6-2.4-5.55-3.9-8.26-2.41-4.37-8.51-5.9-12-9.64-6.13-6.65-13.72-18.76-23.65-11l-.12.08c-3.06,8.34,3.61,14,7.88,20.87,2.53,4.06,4.58,7.55,8.67,10.24a50.36,50.36,0,0,1,7.2,5.09c2.41,2.29,4,6.35,6.92,8C99.79,230.26,102.87,231.08,105.7,232.32Z"/><path class="cls-3" d="M78.38,198.25c-1.42.91-1.69-.46-2.1-1.69a23.84,23.84,0,0,0-1.39-4.3c-.93-1.68-3.68-.48-2.74,1.21,1.06,1.91,1.07,4.24,2.17,6.14,1.41,2.44,3.78,2.36,6,1C81.9,199.53,80,197.21,78.38,198.25Z"/><path class="cls-3" d="M88.54,207.24a3,3,0,0,1-3.15,0,1.5,1.5,0,0,0-1.94.86,1.53,1.53,0,0,0,.86,1.94,5.94,5.94,0,0,0,6.13-.46,1.5,1.5,0,0,0,.21-2.11A1.53,1.53,0,0,0,88.54,207.24Z"/><path class="cls-3" d="M98.26,207.71c-1.55-1.16-3.31,1.27-1.76,2.43,1.71,1.28.66,3.5-.56,4.76s.55,3.71,1.9,2.32C100.43,214.55,101.7,210.29,98.26,207.71Z"/><path class="cls-3" d="M102.86,224.4c-1.93-.14-2.27,2.84-.34,3a3.49,3.49,0,0,1,2.49,1.56c1.2,1.51,3.53-.38,2.32-1.9A6.43,6.43,0,0,0,102.86,224.4Z"/><path class="cls-3" d="M.36,144.22l-.36.63v-6.93a36.76,36.76,0,0,0,1.75-6.33c-.32.25-.63.5-1,.73a1.28,1.28,0,0,1-.78.19v-3.84l.24.31c5.19-4.13,7.34-10.48,7.83-16.95a27.25,27.25,0,0,1-6.3,3.61A1.64,1.64,0,0,1,0,115.46V109c.55,1.22,1.15,2.39,1.71,3.47,2.26-1,5-2.45,6.49-4.46a1.32,1.32,0,0,1,.71-1.21,4.85,4.85,0,0,0,.4-2.14C9.08,99.24,4.84,96,.13,94.4L0,94.59V90.26a28.81,28.81,0,0,1,30.45-.2,1.53,1.53,0,0,1,.3,2.36,18,18,0,0,1-5.32,4.24,17.29,17.29,0,0,1,9,9.3,1.49,1.49,0,0,1-.69,1.69c-.31.18-.63.34-1,.51,4,5,4.34,13.79,3,19.6a1.49,1.49,0,0,1-1.45,1.1l-.55-.06a36.21,36.21,0,0,1-4.82,14,1.52,1.52,0,0,1-2.05.54l-1-.49c-1.36,2-3.16,5.79-5.75,6.44s-5.31-1.08-7.59-2c-.29.6-.57,1.2-.81,1.83a1.53,1.53,0,0,1-2.2.9A46.17,46.17,0,0,1,.36,144.22Zm22.89-2.73-3.18-1.59c-.09.4-.18.8-.27,1.2a1.5,1.5,0,0,1-1.84,1c-.82-.32-1.6-.68-2.37-1.06A23.59,23.59,0,0,1,14,144.64c1.64.77,3.81,2,5.36,1.78C20.73,146.23,22.46,142.75,23.26,141.48Zm.27-21.1a22.23,22.23,0,0,0-2.79-9.6,1.6,1.6,0,0,1-.15-.44,17.93,17.93,0,0,1-9-2.81c-.11.28-.26.53-.4.79a38.57,38.57,0,0,1-1,9.56l.24,0C14.79,118.81,19.1,119.89,23.52,120.38Zm7.32,8.05c-2.82-.4-5.62-.89-8.46-1.19a57.91,57.91,0,0,1-1.62,9.65l6.3,3.15A31.18,31.18,0,0,0,30.85,128.43Zm-1-19.12a26,26,0,0,1-6,1A23.81,23.81,0,0,1,26.52,122a1.51,1.51,0,0,1-1.5,1.5c-.89-.07-1.77-.17-2.66-.28,0,.33,0,.66,0,1,3.6.39,7.15,1.07,10.75,1.48C34.05,120.52,33.52,113.06,29.84,109.31Zm-9-10.78a35,35,0,0,1-9.31,1.33,9.12,9.12,0,0,1,.82,4.63,1.44,1.44,0,0,1,.47.24c4.57,3.43,12.94,3.37,18.28.95A13.24,13.24,0,0,0,20.8,98.54ZM9.48,96.87h.21A32.84,32.84,0,0,0,20,95.63l.19-.06a18.55,18.55,0,0,0,7-3.88,25.94,25.94,0,0,0-24.64.47A19.88,19.88,0,0,1,9.48,96.87Zm-4.16,31.2a29.7,29.7,0,0,0,12,10.53c1.24-5.23,2.73-10.4,2-15.81-3.25-.56-6.47-1.32-9.71-2a1.65,1.65,0,0,1-.27-.09A24.49,24.49,0,0,1,5.32,128.07ZM1.74,141.49a43.05,43.05,0,0,0,7.89,5.15c1.13-2.33,2.58-4.51,3.28-7v0a33,33,0,0,1-8.27-7.42A39.52,39.52,0,0,1,1.74,141.49Z"/><path class="cls-3" d="M40.46,76.81c-5.55-2.49-10.41-7.65-9.55-14.1a1.51,1.51,0,0,1,2.43-.92c2.39,1.86,5.72,3.86,8.88,3.94,1.66-5.63,4.65-10.64,9.71-13.68-3.8-5.95-8.61-11.17-11.54-17.66a1.49,1.49,0,0,1,.51-1.75c8.89-5.9,22.18-7.79,32.46-5.16a1.52,1.52,0,0,1,1.23,1.73c-1.46,7.6-6.51,13.67-8.63,21A27,27,0,0,1,77.53,61.11c3.3-2.94,6.12-6.35,9.61-9.09a1.51,1.51,0,0,1,2.38,1.06c.79,6.49,9.18,41.27-6.52,34.56-2,12.46-10.08,22.28-21.73,27.42a1.29,1.29,0,0,1-1.42-.17h-.07c-11.83-2.6-18.54-18.8-19.24-29.72A73.54,73.54,0,0,1,40.46,76.81ZM78.27,94l-.21-.17c-8.89-8.74-22.6-5.86-32.84-1.27a1.6,1.6,0,0,1-.28.09c2.35,8.33,7.49,17.53,15.33,19.25a1.68,1.68,0,0,1,.36.13A33.86,33.86,0,0,0,78.27,94Zm1.95-7.81a1.46,1.46,0,0,1-.37-.58c-1.56-4.3-8.75-8.27-12.31-4.1a1.51,1.51,0,0,1-2.37-.06c-2.16-3.39-7.9-4.36-8.91.55a1.52,1.52,0,0,1-2.43.91c-3.74-3-7.09-1.19-9.09,2.64a1.45,1.45,0,0,1-1.06.79c.13,1.07.3,2.2.55,3.38,10.92-4.87,25.47-7.54,35.09,1.18A30.47,30.47,0,0,0,80.22,86.21ZM79,63.78A41.53,41.53,0,0,1,83.36,84.5c7.88,3.74,6.58-8.71,6.05-13.55-.54-5-1.7-9.88-2.49-14.82C84.21,58.6,81.78,61.36,79,63.78Zm-28.47-7c4-1.6,8.06-1.48,11.6,1.82a15,15,0,0,1,7.11-2.84,19.78,19.78,0,0,0-5.16-3.16,1.32,1.32,0,0,1-.82-.88,1.21,1.21,0,0,1-.44-1.37c1.87-7.18,6.7-13.13,8.52-20.3-8.86-1.81-19.83-.33-27.59,4.32,2.89,5.82,7.32,10.66,10.79,16.14a1.49,1.49,0,0,1,.23,1,1.63,1.63,0,0,1-.43,2.56A15.33,15.33,0,0,0,50.54,56.81ZM44.29,69.37c3.66-2,7.72-2.89,10.81-.11,2.72-4,8.29-3.64,11.86-.11,3.16-2.12,6.83-3.19,10.28-2a32.48,32.48,0,0,0-5.13-8.55,1.57,1.57,0,0,1-.68.08c-3.4-.33-6,1.07-8.58,3.07a1.52,1.52,0,0,1-2.1-.33c-4-4.58-8.69-2.69-13,.2a1.46,1.46,0,0,1-.94.26A30.3,30.3,0,0,0,44.29,69.37Zm-.95,12.86C46.05,78.72,50,77.31,54,79.48c2.4-4.7,8.88-4.95,12.53-1.09,4.13-3.07,10.27-1.28,13.82,2.52a41.65,41.65,0,0,0-1.74-9.85,1.48,1.48,0,0,1-.92-.3c-3.43-2.46-7.25-.59-10.07,1.6a1.51,1.51,0,0,1-2.1-.33c-2.07-2.74-7.23-4.72-8.62.19-.32,1.14-1.91,1.84-2.69.64-2.77-4.27-7.06-2-10.31.26l-.26.14A57,57,0,0,0,43.34,82.23ZM40.71,73.6a48.45,48.45,0,0,1,.77-4.91A17.78,17.78,0,0,1,34,65.9C34.7,69.29,37.58,72,40.71,73.6Z"/><path class="cls-3" d="M57.8,48.23c-1.43-4.19-2.84-8.38-4-12.66-.5-1.86-3.29-.76-2.8,1.09,1.14,4.28,2.55,8.47,4,12.66C55.63,51.14,58.42,50.05,57.8,48.23Z"/><path class="cls-3" d="M62,43.17c0-3.12,0-6.24.33-9.35.17-1.92-2.79-2.42-3-.5-.3,3.38-.36,6.76-.35,10.15C59,45.41,62,45.08,62,43.17Z"/><path class="cls-3" d="M260,278.4c-10.24,1.33-20.66,3.29-31,2.6a80.08,80.08,0,0,1-24.36-5.55c-12.72-5.08-29.19-14.14-29.14-29.85v-.07c-6.39-3-13.69-3.86-19.24-8.46-1.48-1.22.2-3.72,1.69-2.48,4.52,3.75,10.35,5.08,15.83,7.08-2.62-3.08-7-5-10.14-7.19-4.33-3-8.11-7.1-11.44-11.11-1.23-1.49,1-3.44,2.28-1.95a65.27,65.27,0,0,0,15,13.21,52.38,52.38,0,0,1,4.5,3.15c-4.1-6.69-9.56-12.52-13.71-19.21-1-1.64,1.7-2.92,2.71-1.29,4.59,7.39,10.74,13.69,14.92,21.29-.11-6.41-3.37-12.53-5.34-18.51-.6-1.81,2.1-3.13,2.71-1.29,2.3,7,6.15,14.11,5.58,21.66A9.2,9.2,0,0,1,190,240c3,1.44,4.81,4.55,6.71,7.09,3,4,7,6.74,11.11,9.42,16,10.47,32.72,17.5,51.94,19C261.47,275.56,261.71,278.18,260,278.4Zm-11.79-1.46a99.11,99.11,0,0,1-31.72-11.59c-6.31-3.65-14.12-7.6-19.18-12.94-2.43-2.57-4.08-5.94-6.69-8.32-4-3.66-8.22-2.17-11.4,1.54a1.56,1.56,0,0,1-.76.5c.21,14.9,18.27,23.55,30.33,27.68a73.23,73.23,0,0,0,23.41,4.3A125.71,125.71,0,0,0,248.19,276.94Z"/><path class="cls-3" d="M105.13,0h.94a6.82,6.82,0,0,1,2.51.77c4.26,2.2,4.22,9.24,4.73,13.86a1.83,1.83,0,0,1,.93.62c1,1.21,3.8,5.54,5.69,4.89a1.39,1.39,0,0,1,1.35.21A35.75,35.75,0,0,1,155,6.71c15.71,2.56,28.5,16.67,32.22,31.85,4.59,18.78-17.86,24.22-31.8,26.43-8.2,1.3-18.47,4.1-26.73,1.83-6.46-1.77-10.34-6.2-13.25-12.06a1.26,1.26,0,0,1-.11-1c-5.6-5-11.49-11-18.75-11.23A1.53,1.53,0,0,1,95,41c-3,.39-6.08,2.27-9.16,1.63a8.08,8.08,0,0,1-4.93-3c-2.07-2.87-1.3-5.58,1.22-6.84-1.57-2.86-1.38-6.29,2.44-7.6,5-1.71,8.64,3.61,13,5a1.55,1.55,0,0,1,1.32-1,1.19,1.19,0,0,1,1.75-.36c4.06,2.61,7.89,2.66,11.75,1.83-2.54-2.52-4.5-5.7-4.69-8.72a1.62,1.62,0,0,1-.3-.26c-1.94-2.16-5.5-2.67-7.79-4.46a8.72,8.72,0,0,1-3.48-5c-.68-3.56,1.79-5.11,4.67-5.44C100.45,3.43,102.16.31,105.13,0ZM96.75,33.07a19.81,19.81,0,0,1-5.87-3.23c-1.4-1-3.19-2.2-5-1.86-2.77.51-1.66,3.11-.31,4.5a1.52,1.52,0,0,1-.86,2.63c-3.41.41-1.62,3.34.59,4.25,3.18,1.31,7-1.26,10.26-1.4C95.88,36.33,96.29,34.7,96.75,33.07Zm23.19-4.67c1.2-.37,2.42-.73,3.67-1,5-1.18,11-1.14,15.33,2.05,8,5.87,10.1,19,2.8,26.46-6.06,6.21-13.25,7-20.33,2.67a15.92,15.92,0,0,0,13,5.9c6.93-.1,14-1.31,20.85-2.46,7.79-1.32,17.15-2.92,23.7-7.73,6.13-4.5,7.08-11.32,4.48-18.19A49.33,49.33,0,0,0,174,20.61c-.76,3.22-1.78,6.33-4.44,8.56-1.48,1.25-3.17-1.24-1.7-2.47,2.48-2.08,3-5.63,3.64-8.63a33.84,33.84,0,0,0-9.83-6.5,30.87,30.87,0,0,1-1.17,12.36c-.57,1.83-3.52,1.27-2.94-.58a28.88,28.88,0,0,0,1-12.71v-.18a26.5,26.5,0,0,0-5.44-1,37.22,37.22,0,0,0-4.33,0c1,4.47,1.63,9.13.63,13.66-.42,1.88-3.36,1.32-2.94-.58.92-4.14.35-8.44-.61-12.53a1.67,1.67,0,0,1,0-.31A32.41,32.41,0,0,0,119.93,28.4ZM100.18,32a74.15,74.15,0,0,0-1.92,7.8c6.37.91,11.47,5.4,16.23,9.53,5.24,4.56,13.24,12.55,20.77,8,5.18-3.15,8.58-8.64,7.85-14.88-.89-7.52-6.66-13.37-14.62-12.69C118.35,30.56,109.8,37.47,100.18,32Zm15.7-2.28.39-.12a1.57,1.57,0,0,1,.1-.43,34.21,34.21,0,0,1,3-6c-2.68-.18-5-2.94-6.71-5.12C107.94,21.27,112.38,26.79,115.88,29.69Zm-11.76-22a1.52,1.52,0,0,1-1.7,2c-6.52-.51-1.56,5,1.22,6.42a35.36,35.36,0,0,1,4.71,2.49A7.48,7.48,0,0,1,110.47,16c-.5-3-.68-6.08-1.4-9-.39-1.57-.87-3.71-2.88-4C103.2,2.59,103.43,5.82,104.12,7.68Z"/><path class="cls-3" d="M30.73,255.22c11.7,8.73,25.7,17.95,40.44,20.1C81,276.75,88,271.64,89.56,261.9c1.81-11-4.42-19.34-13.23-23.47C76,225.83,65.85,219.7,54.41,217c-4.91-10.81-12.91-19.9-23.47-23.42a1.37,1.37,0,0,0,.28-1.1C29.31,179.55,11.56,175.31,0,180.1v3.09a20.93,20.93,0,0,1,6-1.68c8.11-1.15,20.8,1.8,22.27,11.32a31.71,31.71,0,0,0-11.31-.53,1.5,1.5,0,0,0,.42,3c10.12-1.3,18.47,2.5,24.87,8.91-5.75-1.89-12.62-2.08-17.75.32-1.75.82-.23,3.41,1.51,2.59,5.76-2.7,14.54-1.23,19.82,2a1.43,1.43,0,0,0,.75.22,50.93,50.93,0,0,1,4.19,7,81.9,81.9,0,0,0-16.27-1c-1.94.07-1.49,3,.42,3,9.32-.31,23.77.88,32.06,7.39-6.14-.68-12.2-.55-17.81,2.58-1.69.94-.18,3.54,1.51,2.59,5.87-3.28,12.42-2.78,18.84-1.85a1.61,1.61,0,0,0,.7-.05,15.5,15.5,0,0,1,3.13,8.36,31.63,31.63,0,0,0-14.69-1.39,1.5,1.5,0,0,0,.42,3c13.35-1.94,28.71,5.88,27.75,20.84-.46,7.06-3.94,12.41-11.31,12.92s-14.8-3-21.12-6.12a142.64,142.64,0,0,1-21.15-13.1c-10.95-8-19.48-17.66-27.35-28.67A97.86,97.86,0,0,1,0,215.36v6.07c1.48,2.23,2.92,4.26,4.17,6C11.8,238.09,20.23,247.39,30.73,255.22Z"/><path class="cls-3" d="M172.5,129.5c.49-4.69,5.22-10.65,10.1-11.45a1.63,1.63,0,0,1,.44,0c1-10.5,3.48-21.33,10.36-29.63,6.47-7.81,16.52-14.33,26.88-14.91s21.25,3.5,28.2,11.42c7.77,8.84,10,19.63,8.57,31.06l.13.2a1.23,1.23,0,0,1,1.21-.12c5.31,2,10.3,5.32,14.86,8.65a1.52,1.52,0,0,1,0,2.59c-4.42,2.57-8.69,1.47-13.27,2.34,5.22,4.37,3.74,9.77-.95,13.33,2.19,19.43-22.7,19.67-36.48,19.55-8.5-.08-18.78.84-27-1.93-5.94-2-8.92-6.05-9.93-12a21.68,21.68,0,0,1-2.44-1.12c-6.85-3.75-5.72-9.65-1.08-14.76a17.54,17.54,0,0,0,0-2.48A29.43,29.43,0,0,1,174,131C173.25,130.94,172.41,130.36,172.5,129.5Zm83.72,15.2q-.67.33-1.38.61c-5.7,2.28-12.44,2.58-18.52,3.23-7.42.79-14.86,1.35-22.31,1.63-7.62.29-17.07,1.51-25.08-.49,1.75,6.44,7.25,8.65,14,9.14,6.51.48,13.08.68,19.61.69C233.6,159.54,256.93,160.39,256.22,144.7Zm1-13.41a1.56,1.56,0,0,1-.33-.3c-1.76,1.66-3.16,4.55-5.42,4.5a2.83,2.83,0,0,1-2.19-.87c-1.47-1.51-1.1-1.26-2.62,0-2,1.67-3.57,1.41-5.94.51-1.82-.69-3.52-2-5.55-1.39-1.8.57-3.53,1.37-5.35,1.87-2,.56-5.67-1-6.85.43-3.16,3.9-7.57,1.59-10.27-1.48-4.17,3.12-9.11,6.13-11.49.86a7.18,7.18,0,0,1-4.11,1.53c-1.68,0-2.94-1.64-4.52-2a1.43,1.43,0,0,1-.64-.34c-1-.38-2.39-.49-3.46-.93a18.18,18.18,0,0,1-4.6,1.77h-.13c-11.49,13.63,22.23,12,28.4,11.79,9.31-.35,18.62-1,27.86-2.14,4.76-.61,10.51-.71,14.82-3.08C259.5,139.47,263.24,135.35,257.24,131.3ZM186.1,117.54a1.57,1.57,0,0,1,.66.17c10.35,5.13,23.27,5.81,34.62,5.55,10.74-.25,23.17-1.13,32.66-6.81a1.68,1.68,0,0,1,0-.34c1.19-8.53.11-17.39-4.3-24.61-1,1.27-2.05,2.45-3,3.77-1.08,1.59-3.69.09-2.59-1.51s2.42-2.93,3.5-4.5a1.63,1.63,0,0,1,.28-.31,28.33,28.33,0,0,0-3.41-3.7,34.4,34.4,0,0,0-18.08-8.64c0,1.81-.46,3.59-.49,5.41s-3,1.94-3,0,.47-3.65.5-5.5l0-.16a25.55,25.55,0,0,0-5.33.41A35.63,35.63,0,0,0,205,81.94c1.79.18,3.58.33,5.36.61s1.09,3.19-.8,2.89c-2.66-.42-5.34-.55-8-.93a39,39,0,0,0-8.31,10,19.48,19.48,0,0,1,3.78,2.93c1.38,1.36-.74,3.48-2.12,2.12a16.67,16.67,0,0,0-3.11-2.42A58.67,58.67,0,0,0,186.1,117.54Zm-10.25,10.52a45.05,45.05,0,0,0,7.25-1,1.53,1.53,0,0,1,1.9,1.45c.06,1.18.14,2.3.13,3.42.89-.36,1.76-.8,2.61-1.22a1.55,1.55,0,0,1,2.05.54c-.9-1.2,1.42,0,2.31.28a11.89,11.89,0,0,1,1.76.64l0,0c3,.88,3.49,2.52,7-.25a1.52,1.52,0,0,1,2.51.66c1.41,5.72,6.21.59,8.8-1.4a1.51,1.51,0,0,1,2.05.54c.7,1,4.17,5.18,6,2.92.39-.49,1.26-1.93,1.95-2.23,2.28-1,4,1.09,6,.54,5.1-1.42,7.56-3.15,12.6-1,2.57,1.09,3.45.79,5.27-1A3.09,3.09,0,0,1,248,130c2.78,0,2.68,3.84,5.39.11,3.67-5.06,10.58-2.88,16.07-4.45a54.25,54.25,0,0,0-11.86-6.71,1.51,1.51,0,0,1-.81-.68l0,0c-10,6.6-23.72,7.8-35.38,8-11.95.15-25.23-.55-36.13-6a1.46,1.46,0,0,1-.51-.4l-.27,0a1.19,1.19,0,0,1-1.07,1C180.43,121.43,177,124.93,175.85,128.05Z"/><path class="cls-3" d="M199.21,110.76c.89,1.72,3.48.2,2.59-1.51a35,35,0,0,1-2.35-4.14c-.65-1.81-3.55-1-2.89.8A39.92,39.92,0,0,0,199.21,110.76Z"/><path class="cls-3" d="M207.29,96.74A8.92,8.92,0,0,1,206,92a1.5,1.5,0,0,0-3,0,11.92,11.92,0,0,0,1.71,6.26C205.74,99.89,208.33,98.38,207.29,96.74Z"/><path class="cls-3" d="M212.79,106.26c.64-1.17,2.29-2.18,3.46-3,1.6-1.07.1-3.67-1.51-2.59s-3.58,2.31-4.54,4S211.86,108,212.79,106.26Z"/><path class="cls-3" d="M217.05,92.4a1.5,1.5,0,0,0,2.89-.8,18.22,18.22,0,0,0-2.65-5.36c-1.07-1.6-3.67-.1-2.59,1.51A15.82,15.82,0,0,1,217.05,92.4Z"/><path class="cls-3" d="M226,104c0,1,3,1,3,0a16.8,16.8,0,0,0-.55-5.15,1.52,1.52,0,0,0-2.89.92A12.41,12.41,0,0,1,226,104Z"/><path class="cls-3" d="M231,91a16.73,16.73,0,0,0,4.9-1.05c1.83-.61,1-3.51-.8-2.89A14.14,14.14,0,0,1,231,88C229.07,88,229.06,91,231,91Z"/><path class="cls-3" d="M237.74,103.3c1.63,1.06,3.37,1.93,5,3s3.13-1.54,1.51-2.59-3.37-1.93-5-3S236.13,102.24,237.74,103.3Z"/><path class="cls-3" d="M188.7,0h3.77a22.66,22.66,0,0,0,2.39,1.11l.14.06a10.52,10.52,0,0,0,1.88.6,6.19,6.19,0,0,1,2.28.58c4.39,2.45,1.94,7.47-.77,10s-3.83,5.66-1.55,7.87c.9-1.77,2.3-3.31,4.37-3.43a8.14,8.14,0,0,1,6.27,2.8c2.93,3,5,9.34-.64,10.59,1.63,5.17,1.4,11.12,3.29,16.21,15.55-1.66,26.44-12.53,35-24.76-8.41-6.05-15.93-13.2-23.6-20.16A1.24,1.24,0,0,1,221,2.76a10.48,10.48,0,0,1-13.48-.65A9.5,9.5,0,0,1,205.81,0h3.77c.11.09.21.19.33.28A7.49,7.49,0,0,0,219,.46a1.5,1.5,0,0,1,1-.29l-.2-.18h4.27c7.39,6.67,14.71,13.45,22.8,19.26a1.49,1.49,0,0,1,.49.57,1.68,1.68,0,0,1,.7.33c4.45-.36,6.13,3.29,7.46,7.46,1.43,4.5-.62,9.06-3.85,12.2-10.29,10-23.38,14-37,16.92a1.35,1.35,0,0,1-.48,1.44c-2.5,2.07-5.72,2.31-8.22.11a8.73,8.73,0,0,1-2.59-4.24,1.19,1.19,0,0,1-.9-.86c-3.07-9.2-3.39-18.94-4.92-28.46a1.71,1.71,0,0,1-1.63-1.1,6.85,6.85,0,0,1-2.72-2.59,7.81,7.81,0,0,1,1.66-9.43,1.6,1.6,0,0,1-.1-.52,18.43,18.43,0,0,0-1.35-6.84,4.57,4.57,0,0,1-1.88-1.08A14.45,14.45,0,0,1,188.7,0Zm23.36,49.21a14.4,14.4,0,0,1,2.06,4.6C222.71,52,231.4,50.06,239,45.53c4.11-2.44,9.4-5.55,12.14-9.66,1.9-2.85,2.8-13.74-3.5-12.62C238.93,35.78,227.68,47,212.06,49.21Zm-5.93,2.42c-.23,3.17,2.65,6.4,5.56,4.68a1.54,1.54,0,0,1-.18-.49,11.58,11.58,0,0,0-2.35-5.47C207.89,48.94,206.26,49.82,206.13,51.63ZM202.8,28.29a6.69,6.69,0,0,0-2-2.05c1.07,7.44,1.5,15.05,3.39,22.33a5.17,5.17,0,0,1,2.82-2C205.22,40.63,206,33.62,202.8,28.29Zm-3.44-6.44A12.83,12.83,0,0,1,204.17,25a14.29,14.29,0,0,1,1.55,2.43,1.58,1.58,0,0,1,.41-.14c1.32-.26,1.56-.91,1.27-2.12a8.16,8.16,0,0,0-2.4-3.8c-.86-.82-2.28-1.8-3.49-1.59A3.09,3.09,0,0,0,199.36,21.85ZM196.81,4.8a21.51,21.51,0,0,1,.82,4.15,5.36,5.36,0,0,0,.56-.82C199.51,5.63,198.22,5,196.81,4.8Z"/><path class="cls-3" d="M216.47,22.77a8.45,8.45,0,0,1,5.81-8.65c4.55-1.54,8.51,1.19,10.89,4.93a1.25,1.25,0,0,1,.21.91c.91,4.54-1.22,10.82-6.63,11.23C222.13,31.53,216.79,27.64,216.47,22.77Zm2.95-.94c0,3.12,3.56,6.95,6.82,6.4,3.74-.63,4.85-4.5,4.17-7.8l0-.19c-1.52-2.33-4.31-4.45-7.23-3.27A5.5,5.5,0,0,0,219.41,21.83Z"/><path class="cls-3" d="M21.66,49c4.45-6.29,5.44-13.78,7.81-20.92a17,17,0,0,1,1-2.42,1.16,1.16,0,0,0,.89-1.37l0-.14c3.2-5,8.41-7.79,12.31-12.35a1.59,1.59,0,0,0,1.51-2.27q-.46-.91-.89-1.83a1.56,1.56,0,0,0,.85-.11C51.32,4.93,63.08,10,67.46,3a4.91,4.91,0,0,0,.88-3h-3a1.83,1.83,0,0,1,0,.69c-.47,2.68-5.53,3-7.43,3.09C52.68,4,48.61,2.85,43.63,5a1.45,1.45,0,0,0-.43.28A31.77,31.77,0,0,1,42,1.92,19.11,19.11,0,0,0,45.52,0H33.13a20.56,20.56,0,0,1-9.7,0H13.67C21.31,2.61,31.76,5.8,38.6.53a35.82,35.82,0,0,0,3.19,8.85c-3.25,4.13-8,6.74-11.41,10.72-1.2-3.49-3.12-6.67-4.69-10.09-.81-1.76-3.39-.23-2.59,1.51,1.76,3.84,4.23,7.47,5.09,11.65-1.85,3.31-2.8,7.24-3.71,11C22.94,23,17.22,12.3,8.14,5.48,6.6,4.32,5.1,6.93,6.63,8.07c10.11,7.59,15.53,20.74,15.26,33.2a1.41,1.41,0,0,0,.25.88,30,30,0,0,1-6.73,9.91c2.49-10.64-1.92-22.49-8.23-31C6,19.48,3.44,21,4.59,22.53c6.59,8.95,11.6,22.26,6.5,33l-.08.22a39,39,0,0,1-9.44,4.83c3.22-4.85,2.19-11.91,1-17.18A64.26,64.26,0,0,0,0,34.74V45.15A25.08,25.08,0,0,1,.13,56.37c0,.15-.09.27-.13.42V64.2A39,39,0,0,0,21.66,49Z"/><path class="cls-3" d="M299.27,90.73c.24-.17.49-.31.73-.47v4.33c-.67,1-1.33,2-2,3.08-1,3.52.34,7.64,2,11.29v6.5a1.32,1.32,0,0,1-.27-.35c-.39-.74-.79-1.52-1.18-2.32a23.46,23.46,0,0,1-3.38,6.89,32.76,32.76,0,0,0,4.84,9v3.84a1.48,1.48,0,0,1-1-.43,32.28,32.28,0,0,1-5.91-9.64,65.39,65.39,0,0,1-4.59,4.83v0c1.27,6.3,5.35,10.51,9.58,14.91a35.06,35.06,0,0,0,1.95-4.29v6.93c-.12.2-.23.4-.35.6a1.51,1.51,0,0,1-2.36.3c-4.69-5-9.47-9.48-11.34-16.1l-1.54,1.44a1.51,1.51,0,0,1-2.36-.3c-2.86-6.22-3.14-12.48-2.24-19.15a17.35,17.35,0,0,1-3.2-.83,1.55,1.55,0,0,1-1-1.84c1.65-9.62,13.08-16.61,22-18a1.51,1.51,0,0,1,1.19.3A1.59,1.59,0,0,1,299.27,90.73Zm-4.07,5.92a10.65,10.65,0,0,1,1-2.37c-7.14,1.81-15.29,6.93-17.39,14C287.23,110.47,291.28,103.23,295.19,96.65Zm1.2,11.79a28.1,28.1,0,0,1-1.87-5.91c-3.16,4.72-6.52,8.77-12.52,9.21h0c0,5.39-.35,10.64,1.51,15.71,5.35-4.92,11.89-10.67,12.54-18.11A1.46,1.46,0,0,1,296.39,108.44Z"/><path class="cls-3" d="M292.87,185.32c-7.93,10.32.06,25.48,7.13,36.11v-6.07c-6.36-11.48-11.57-26.75,0-32.18V180.1A17.09,17.09,0,0,0,292.87,185.32Z"/><path class="cls-3" d="M262.93,32.59c2.83,12.27,9.62,27.92,22.36,32.64a15.05,15.05,0,0,0,9.88.05A45.19,45.19,0,0,0,300,64.2V56.79a8.44,8.44,0,0,1-5.91,5.66c-.9.14-1.8.25-2.7.33a1.58,1.58,0,0,0-.66.2,14.13,14.13,0,0,1-4.65-.64c-11.42-3.64-17.32-19.21-20-29.58-2.38-9.12-4.79-25.83,5.08-31.68,6.58,5.18,12.74,10.05,17.31,17.19a95,95,0,0,1,9.06,18.54,61.22,61.22,0,0,1,2.5,8.34V34.74a104.64,104.64,0,0,0-7.07-14.82C288.23,11.61,281.87,5.83,274.56,0h-7.05C258.83,7.38,260.67,22.81,262.93,32.59Z"/><path class="cls-3" d="M287.19,42.53c-3.42,4.35-7.92,1.72-9.91-2.44-1.76-3.68-3.25-8.64-2.26-12.84a1.42,1.42,0,0,1,.31-1.53c.11-.12.23-.22.34-.32a1.19,1.19,0,0,1,.73-.61C283.46,19.65,291.74,36.73,287.19,42.53Zm-9.11-15.21c-1.14,3.82,2.84,18.37,6.74,13.4C287.48,37.34,282.07,24.89,278.08,27.32Z"/><path class="cls-3" d="M194.85,278.58c-3.89,2.41-7.68.72-9.31,5.85-1.07,3.38,2.73,3.83,4.92,4.6,1.15.4,4.43,2.83,2.24,3.54-1.71.55-2.36,1.63-3,3.24-.36,1-1.74,2-1.44,3.2a4.21,4.21,0,0,0,.39,1h3.77c-.77-.43-1.3-.82-1.16-1,.44-.71.87-1.34,1.25-2.09.9-1.74,2.57-1.77,3.94-2.86,3.81-3.05-2.24-6.33-4.23-7.39a12.05,12.05,0,0,0-3-1c-2.34-.55,1.55-2.67,2.67-2.93a34.82,34.82,0,0,0,3.58-.94c1-.35,5.17,3.1,6.08,3.7,2,1.3,3.87,2.66,5.73,4.07l-.07.06c-2.72,3.13-3.33,7.14-1.41,10.47h3.77c-2.84-2.41-2.21-6.08.05-8.7,3.5,2.77,6.88,5.71,10.21,8.7h4.27c-8.69-7.83-17.48-15.52-27.76-21.29A1.5,1.5,0,0,0,194.85,278.58Z"/><path class="cls-3" d="M270.33,298.22l-.07.07a1.44,1.44,0,0,0-.62.2,15.25,15.25,0,0,0-2.12,1.52h7.05l-.8-.63c7.74-5.36,17.17-5.28,26.23-3.37v-3.14C289.74,290.84,278.78,291.49,270.33,298.22Z"/><path class="cls-3" d="M61.78,294.66c1.25-4.11,2.61-7.88,1.55-12.29a1.51,1.51,0,0,0-1.84-1c-9.06,2.79-11.68,13.88-20.14,17.62v-.08a1.16,1.16,0,0,0-1.06-1.08,1.47,1.47,0,0,0-2.44-.59,10.67,10.67,0,0,1-4.7,2.78H45.52a30.15,30.15,0,0,0,6.06-5.75c2.72-3.27,5.22-7.44,9.13-9.39.28,3.64-1.27,7-2.26,10.51a1.5,1.5,0,0,0,1,1.85c1.47.25,5.41.75,5.81,2.78h3C68.13,297.22,64.78,295.47,61.78,294.66Z"/><path class="cls-3" d="M0,292.86V296a104.94,104.94,0,0,1,12.32,3.54l1.34.46h9.76c-7-1.4-14.54-4.94-19.67-6.29C2.52,293.39,1.26,293.11,0,292.86Z"/><path class="cls-3" d="M262.32,216.21c-2.83,11.26-14.5,17.72-25.49,13.36-16.7-6.61-15.25-35.74,3.5-37C253.11,189.5,265.45,203.8,262.32,216.21Zm-4.89-12.88c-3.16-4.62-8.94-8.32-14.62-8.05a1.41,1.41,0,0,1-.81.22c-.38,0-.76,0-1.12,0a11.35,11.35,0,0,0-1.48.42,1.28,1.28,0,0,1-1.07,0c-12.57,3.05-13.74,23.16-2.46,29.82,8.27,4.89,20,1.23,23-8.28C260.3,212.83,260.26,207.47,257.43,203.34Z"/><path class="cls-3" d="M242.4,217.55c-6.29-1.23-5.21-10.34-1.84-14,1.31-1.42-.81-3.55-2.12-2.12-4.82,5.22-5.51,17.31,3.16,19C243.49,220.82,244.3,217.93,242.4,217.55Z"/><path class="cls-3" d="M272.43,183.27c7.21,9,9.83,21.81,8.41,33.11-1.16,9.3-4.76,21.44-11.86,28.12a17.08,17.08,0,0,1-13.29,4.86c-3.19-.26-6.41-1.07-9.61-1-3.67.09-6.72,1.27-10.07,2.58-5,2-10,3.73-15.3,1.71-4.47-1.72-7.13-6.57-9-10.67-2.94-6.52-4.89-11.95-10.07-17.11-3.61-3.6-7.1-7.34-9.19-12.06-4.28-9.66,2.83-20.35,9.87-26.63a52.66,52.66,0,0,1,27.57-12.75A1.34,1.34,0,0,1,231,173l2.11,0,.39,0a1.46,1.46,0,0,1,.57.06c3.79.05,7.58,0,11.36.23C254.92,173.77,266.06,175.34,272.43,183.27Zm4.79,18c-2.37-10.78-7.81-20.28-19.11-23.19-8.2-2.11-16.66-1.83-25.05-2-11.37,1.08-22.92,5.79-30.71,14.36-3.77,4.15-8.33,9.92-8.17,15.88.14,5.25,3,9.52,6.51,13.24s7.55,7,9.8,11.69c2,4.26,3.23,9.05,5.76,13,8.39,13.22,18.74.57,29.85,1.1,5.88.28,12.93,2.71,18.25-.94,4-2.73,6.45-7,8.43-11.27C277.35,223.13,279.63,212.19,277.22,201.22Z"/><path class="cls-3" d="M155.58,159.9c6.68.41,13.11,2.14,17.58,7.55,5.38,6.5,8.29,16.26,5.18,24.47-6.47,17.1-28.5,22.59-44.46,16.55C118.95,202.83,104.35,189.3,107,172c2.27-15,18.83-21.62,31.1-14.9a27.57,27.57,0,0,1-3.28-8.91,1.52,1.52,0,0,1,1.5-1.85c3.71,0,5.77,2.26,8.09,4.62a74.29,74.29,0,0,1,3.26-7.75,1.51,1.51,0,0,1,2.59.09,24.86,24.86,0,0,1,1.55,8.45,28.47,28.47,0,0,1,8.86-1.87,1.51,1.51,0,0,1,1.46,1.54C162,155.79,159,158,155.58,159.9Zm-17.35-10.22a28.21,28.21,0,0,0,5.29,10.1,1.72,1.72,0,0,1,.19.29c1.89-.1,3.84-.2,5.81-.25,3.12-1.86,8-3.27,9.27-6.85a27.3,27.3,0,0,0-7.63,2.17,1.53,1.53,0,0,1-2.21-1.36c-.17-1.79-.19-3.59-.41-5.36-.74,1.84-1.41,3.72-2.15,5.57a1.52,1.52,0,0,1-2.53.59C142,152.92,140.52,150.59,138.23,149.68Zm12.15,13.1a1.21,1.21,0,0,1-.93,0c-2.59.08-5.17.25-7.67.36a1.24,1.24,0,0,1-1.28-.76,1.65,1.65,0,0,1-.32-.23c-5.7-5.25-14.88-6.56-21.7-2.6-6.44,3.75-9.55,11.14-8.79,18.49,1.41,13.52,13.86,24,26.2,27.93,13.43,4.27,34.85.79,39.6-14.94,2.29-7.58.55-17-5.43-22.53C164.56,163.41,157.49,162.64,150.37,162.78Z"/><path class="cls-3" d="M125.78,163c-8.58,6.79-10.9,19.53-2.94,27.72,1.35,1.39,3.55-.65,2.2-2-6.88-7.09-4.52-17.7,2.79-23.48C129.34,164,127.28,161.8,125.78,163Z"/></pattern></defs><title>instagram-background</title><g id="Capa_2" data-name="Capa 2"><g id="Pattern"><rect class="cls-4" width="1923.07" height="450.52"/></g></g></svg>