<?xml version="1.0" encoding="iso-8859-1"?>
<!-- Generator: Adobe Illustrator 21.0.0, SVG Export Plug-In . SVG Version: 6.00 Build 0)  -->
<svg version="1.1" id="Capa_1" xmlns="http://www.w3.org/2000/svg" xmlns:xlink="http://www.w3.org/1999/xlink" x="0px" y="0px"
	 viewBox="0 0 890 247.738" style="enable-background:new 0 0 890 247.738;" xml:space="preserve">
<path style="fill:#FFB819;" d="M883.959,171.308c-4.082-1.15-8.191,1.203-9.055,4.822l-0.07,0.27
	c-1.106,3.793-3.17,7.191-6.221,10.182c-4.789,4.702-10.588,7.051-17.402,7.051c-6.808,0-12.608-2.349-17.402-7.051
	c-4.788-4.698-7.182-10.39-7.182-17.073c0-6.681,2.393-12.374,7.182-17.075c4.794-4.699,10.594-7.051,17.402-7.051
	c5.412,0,10.18,1.49,14.316,4.459l-17.844,17.512l-3.849,3.773c-2.641,2.585-2.381,7.035,0.58,9.938
	c2.953,2.906,7.494,3.158,10.128,0.569l3.847-3.777l20.156-19.776l3.849-3.773c2.287-2.244,2.391-5.89,0.45-8.715
	c0.009,0,0.016-0.003,0.016-0.003c-0.085-0.117-0.19-0.241-0.287-0.357c-0.117-0.151-0.239-0.302-0.367-0.445
	c-0.86-1.021-1.77-2.02-2.754-2.988c-7.754-7.605-17.165-11.409-28.241-11.409s-20.487,3.804-28.234,11.409
	c-7.754,7.609-11.623,16.839-11.623,27.71c0,10.87,3.869,20.103,11.623,27.709c7.747,7.604,17.158,11.404,28.234,11.404
	s20.487-3.8,28.241-11.404c5.374-5.276,8.871-11.34,10.512-18.186C889.965,179.031,890.829,173.242,883.959,171.308z"/>
<ellipse style="fill:#FFB819;" cx="707.151" cy="198.844" rx="9.831" ry="9.779"/>
<path style="fill:#FFB819;" d="M31.458,15.645C31.458,7.006,24.415,0,15.729,0C7.041,0,0,7.006,0,15.645v0.002l0,0v177.327
	c0,8.642,7.041,15.646,15.729,15.646c8.686,0,15.729-7.004,15.729-15.646V15.646l0,0V15.645z"/>
<path style="fill:#FFB819;" d="M330.31,52.157c-43.432,0-78.643,35.027-78.643,78.232s35.211,78.232,78.643,78.232
	c43.439,0,78.647-35.027,78.647-78.232S373.749,52.157,330.31,52.157z M330.31,177.329c-26.057,0-47.185-21.015-47.185-46.939
	c0-25.924,21.128-46.939,47.185-46.939c26.065,0,47.189,21.015,47.189,46.939C377.498,156.314,356.374,177.329,330.31,177.329z"/>
<path style="fill:#FFB819;" d="M125.83,52.157c-43.432,0-78.643,35.027-78.643,78.232s35.211,78.232,78.643,78.232
	c17.707,0,34.043-5.824,47.189-15.645c0,8.641,7.041,15.645,15.729,15.645c8.685,0,15.729-7.004,15.729-15.646v-62.586
	C204.477,87.184,169.269,52.157,125.83,52.157z M125.83,177.329c-26.057,0-47.185-21.015-47.185-46.939
	c0-25.924,21.128-46.939,47.185-46.939c26.063,0,47.189,21.015,47.189,46.939C173.019,156.314,151.893,177.329,125.83,177.329z"/>
<path style="fill:#FFB819;" d="M613.434,52.157c-43.432,0-78.643,35.027-78.643,78.232s35.211,78.232,78.643,78.232
	c17.707,0,34.043-5.824,47.187-15.645c0.002,8.641,7.043,15.645,15.729,15.645c8.686,0,15.729-7.004,15.729-15.646v-62.586
	C692.079,87.184,656.871,52.157,613.434,52.157z M613.434,177.329c-26.057,0-47.185-21.015-47.185-46.939
	c0-25.924,21.128-46.939,47.185-46.939c26.063,0,47.187,21.015,47.187,46.939C660.621,156.314,639.497,177.329,613.434,177.329z"/>
<path style="fill:#FFB819;" d="M456.144,15.646C456.144,7.007,449.101,0,440.414,0c-8.688,0-15.729,7.007-15.729,15.646l0,0l0,0
	v177.329c0,8.642,7.041,15.646,15.729,15.646c8.686,0,15.729-7.004,15.729-15.646V15.646L456.144,15.646L456.144,15.646z"/>
<path style="fill:#FFB819;" d="M519.058,15.646C519.058,7.007,512.015,0,503.329,0C494.641,0,487.6,7.007,487.6,15.646l0,0l0,0
	v177.329c0,8.642,7.041,15.646,15.729,15.646c8.686,0,15.729-7.004,15.729-15.646V15.646L519.058,15.646L519.058,15.646z"/>
<path style="fill:#FFB819;" d="M766.788,130.389c-21.715,0-39.321,17.513-39.321,39.114v70.411c0,4.321,3.52,7.823,7.864,7.823
	c4.344,0,7.865-3.502,7.865-7.823v-39.169c6.577,4.923,14.728,7.876,23.592,7.876c21.721,0,39.325-17.512,39.325-39.117
	C806.113,147.903,788.509,130.389,766.788,130.389z M766.79,192.976c-13.029,0-23.593-10.508-23.593-23.47
	c0-12.964,10.565-23.472,23.593-23.472c13.03,0,23.594,10.508,23.594,23.472C790.384,182.468,779.82,192.976,766.79,192.976z"/>
</svg>
