<svg xmlns="http://www.w3.org/2000/svg" viewBox="0 0 144 86.16"><defs><style>.cls-1{fill:#e40520;}.cls-2{fill:#fab31e;}.cls-3{fill:#06326e;}.cls-4{fill:#fff;}</style></defs><title>master-card</title><g id="Capa_2" data-name="Capa 2"><g id="Layer_1" data-name="Layer 1"><path class="cls-1" d="M86.16,43.08A43.08,43.08,0,1,1,43.08,0,43.08,43.08,0,0,1,86.16,43.08Z"/><path class="cls-2" d="M100.92,0A42.91,42.91,0,0,0,72,11.15a43.59,43.59,0,0,0-4.35,4.56h8.7a44.7,44.7,0,0,1,3.29,4.56H64.36a44.68,44.68,0,0,0-2.48,4.57H82.12a42.05,42.05,0,0,1,1.82,4.56H60.06A40.29,40.29,0,0,0,58.81,34H85.19a43.34,43.34,0,0,1-1.25,22.81H60.06a42.88,42.88,0,0,0,1.82,4.56H82.12a42.74,42.74,0,0,1-2.49,4.56H64.36a43.62,43.62,0,0,0,3.29,4.56h8.7A42.62,42.62,0,0,1,72,75,43.08,43.08,0,1,0,100.92,0Z"/><path class="cls-2" d="M138.26,67.1a1.39,1.39,0,1,1,1.39,1.39A1.4,1.4,0,0,1,138.26,67.1Zm1.39,1.05a1.06,1.06,0,1,0-1.06-1.05A1.06,1.06,0,0,0,139.65,68.15Zm-.19-.44h-.28V66.49h.51a.7.7,0,0,1,.32.05.4.4,0,0,1,.15.31.34.34,0,0,1-.21.32l.22.54h-.31l-.19-.49h-.21Zm0-.7h.16a.32.32,0,0,0,.17,0,.17.17,0,0,0,.08-.14.21.21,0,0,0-.07-.13.41.41,0,0,0-.19,0h-.15Z"/><path class="cls-3" d="M33,47.8a7.53,7.53,0,0,0-1-.08c-2.65,0-4,.91-4,2.71a1.63,1.63,0,0,0,1.67,1.81C31.57,52.24,32.94,50.43,33,47.8Zm3.4,7.92H32.55l.09-1.85A5.87,5.87,0,0,1,27.73,56c-2.53,0-4.27-2-4.27-4.85,0-4.33,3-6.85,8.21-6.85a17.82,17.82,0,0,1,1.91.13,4.47,4.47,0,0,0,.18-1.15c0-1.17-.81-1.62-3-1.62a15.48,15.48,0,0,0-5,.81l.65-4a18.44,18.44,0,0,1,5.6-.94c4,0,6.14,1.8,6.14,5.21a23.21,23.21,0,0,1-.38,3.52C37.41,48.85,36.54,54.37,36.42,55.72Z"/><polygon class="cls-3" points="21.5 55.72 16.83 55.72 19.51 38.92 13.52 55.72 10.34 55.72 9.94 39.01 7.13 55.72 2.75 55.72 6.41 33.87 13.13 33.87 13.54 46.09 17.64 33.87 25.12 33.87 21.5 55.72"/><path class="cls-3" d="M106.7,47.8a7.53,7.53,0,0,0-1-.08c-2.65,0-4,.91-4,2.71a1.63,1.63,0,0,0,1.67,1.81C105.25,52.24,106.62,50.43,106.7,47.8Zm3.4,7.92h-3.87l.09-1.85a5.87,5.87,0,0,1-4.9,2.15c-2.54,0-4.28-2-4.28-4.85,0-4.33,3-6.85,8.21-6.85a17.82,17.82,0,0,1,1.91.13,4.47,4.47,0,0,0,.18-1.15c0-1.17-.81-1.62-3-1.62a15.48,15.48,0,0,0-5,.81l.65-4a18.44,18.44,0,0,1,5.6-.94c4,0,6.14,1.8,6.14,5.21a24.59,24.59,0,0,1-.38,3.52C111.09,48.85,110.22,54.37,110.1,55.72Z"/><path class="cls-3" d="M57.21,55.45a10.76,10.76,0,0,1-3.36.57c-2.39,0-3.7-1.37-3.7-3.9a43.49,43.49,0,0,1,.64-4.74c.27-1.66,2-12.12,2-12.12h4.65l-.54,2.68h2.81l-.64,4.28H56.28C55.74,45.6,55,49.81,55,50.36c0,.92.48,1.32,1.6,1.32a3.65,3.65,0,0,0,1.26-.17Z"/><path class="cls-3" d="M71.46,55.3a15.6,15.6,0,0,1-4.77.72c-5.2,0-7.92-2.72-7.92-7.92,0-6.08,3.46-10.55,8.14-10.55,3.83,0,6.28,2.5,6.28,6.43a19.4,19.4,0,0,1-.57,4.37H63.36c-.31,2.58,1.34,3.65,4,3.65a11,11,0,0,0,4.84-1.12ZM68.85,44.77c0-.37.49-3.17-2.16-3.17-1.49,0-2.54,1.12-3,3.17Z"/><path class="cls-3" d="M39.23,43.56c0,2.25,1.09,3.8,3.56,5,1.89.9,2.19,1.16,2.19,2,0,1.1-.84,1.61-2.69,1.61a13,13,0,0,1-4.19-.71l-.64,4.11a21.81,21.81,0,0,0,4.86.52c4.94,0,7.22-1.88,7.22-5.94,0-2.44-.95-3.87-3.3-4.95-2-.9-2.18-1.1-2.18-1.93s.77-1.45,2.28-1.45a25.69,25.69,0,0,1,3.37.27l.66-4.13a32,32,0,0,0-4.12-.34C41,37.55,39.21,40.28,39.23,43.56Z"/><path class="cls-3" d="M94.21,38a8.81,8.81,0,0,1,4.18,1.18l.76-4.75c-.68-.27-3.09-1.85-5.14-1.85a9.31,9.31,0,0,0-7.63,4.12c-2.72-.9-3.84.92-5.2,2.73L80,39.73a9,9,0,0,0,.15-1.79h-4.3c-.58,5.51-1.62,11.08-2.44,16.58l-.21,1.2h4.68c.78-5.08,1.21-8.33,1.47-10.53l1.76-1c.27-1,1.09-1.31,2.74-1.27a20.36,20.36,0,0,0-.33,3.64c0,5.81,3.14,9.43,8.17,9.43a14.63,14.63,0,0,0,4.14-.64l.82-5a9,9,0,0,1-4,1.12c-2.71,0-4.36-2-4.36-5.32C88.27,41.39,90.72,38,94.21,38Z"/><path class="cls-3" d="M133.81,33.86l-1,6.32c-1.28-1.68-2.65-2.9-4.47-2.9-2.36,0-4.51,1.79-5.91,4.42a38.9,38.9,0,0,1-4-1.1v0a24.25,24.25,0,0,0,.21-2.68h-4.3c-.58,5.51-1.62,11.08-2.43,16.58l-.22,1.2h4.68q.94-6.16,1.47-10.21c1.6-1.45,2.4-2.71,4-2.63a15.18,15.18,0,0,0-1.14,5.77c0,4.44,2.25,7.37,5.65,7.37a5.51,5.51,0,0,0,4.31-2l-.22,1.65h4.43l3.56-21.85ZM128,51.61c-1.6,0-2.4-1.18-2.4-3.5,0-3.5,1.51-6,3.63-6,1.6,0,2.48,1.22,2.48,3.48C131.67,49.14,130.13,51.61,128,51.61Z"/><polygon class="cls-4" points="22.85 54.42 18.17 54.42 20.85 37.62 14.87 54.42 11.68 54.42 11.29 37.72 8.47 54.42 4.1 54.42 7.75 32.57 14.48 32.57 14.67 46.09 19.2 32.57 26.47 32.57 22.85 54.42"/><path class="cls-4" d="M34.37,46.5a9.15,9.15,0,0,0-1-.07c-2.65,0-4,.91-4,2.7A1.64,1.64,0,0,0,31,51C32.91,51,34.29,49.13,34.37,46.5Zm3.4,7.92H33.89L34,52.58a5.88,5.88,0,0,1-4.9,2.15c-2.53,0-4.27-2-4.27-4.86,0-4.33,3-6.85,8.21-6.85a15.75,15.75,0,0,1,1.91.14A4.6,4.6,0,0,0,35.11,42c0-1.18-.82-1.62-3-1.62a15.21,15.21,0,0,0-4.95.8l.65-4a18.7,18.7,0,0,1,5.59-.94c4,0,6.15,1.81,6.14,5.21A22.74,22.74,0,0,1,39.17,45C38.76,47.56,37.89,53.08,37.77,54.42Z"/><path class="cls-4" d="M100.5,33.16l-.77,4.74a8.92,8.92,0,0,0-4.17-1.18c-3.5,0-6,3.38-6,8.19,0,3.31,1.65,5.32,4.37,5.32a9.12,9.12,0,0,0,4-1.12l-.82,5a14.57,14.57,0,0,1-4.13.64c-5,0-8.17-3.62-8.17-9.44C84.83,37.48,89.16,32,95.36,32A16.2,16.2,0,0,1,100.5,33.16Z"/><path class="cls-4" d="M108,46.5a8.86,8.86,0,0,0-1-.07c-2.65,0-4,.91-4,2.7A1.64,1.64,0,0,0,104.69,51C106.59,51,108,49.13,108,46.5Zm3.41,7.92h-3.88l.09-1.84a5.88,5.88,0,0,1-4.9,2.15c-2.54,0-4.27-2-4.27-4.86,0-4.33,3-6.85,8.21-6.85a15.46,15.46,0,0,1,1.9.14,4.28,4.28,0,0,0,.19-1.15c0-1.18-.82-1.62-3-1.62a15.21,15.21,0,0,0-5,.8l.65-4a18.7,18.7,0,0,1,5.59-.94c4,0,6.15,1.81,6.14,5.21a22.74,22.74,0,0,1-.37,3.52C112.44,47.56,111.57,53.08,111.45,54.42Z"/><path class="cls-4" d="M58.55,54.15a10.74,10.74,0,0,1-3.36.58c-2.39,0-3.69-1.38-3.69-3.9a40.82,40.82,0,0,1,.64-4.74c.27-1.66,2-12.13,2-12.13h4.65l-.55,2.69h2.39L60,40.92H57.63c-.54,3.38-1.31,7.59-1.32,8.15,0,.92.49,1.31,1.6,1.31a3.86,3.86,0,0,0,1.26-.16Z"/><path class="cls-4" d="M72.81,54a16,16,0,0,1-4.77.72c-5.21,0-7.92-2.72-7.92-7.93,0-6.08,3.45-10.55,8.14-10.55,3.83,0,6.28,2.51,6.28,6.43A19.26,19.26,0,0,1,74,47.05H64.71c-.32,2.58,1.33,3.66,4,3.66a11.09,11.09,0,0,0,4.83-1.12ZM70.2,43.47c0-.37.49-3.17-2.17-3.17-1.48,0-2.54,1.13-3,3.17Z"/><path class="cls-4" d="M40.57,42.27c0,2.25,1.09,3.79,3.57,5,1.89.89,2.18,1.15,2.18,2,0,1.11-.83,1.61-2.68,1.61a13.19,13.19,0,0,1-4.19-.7l-.65,4.1a21.71,21.71,0,0,0,4.87.53c4.94,0,7.22-1.88,7.22-5.94,0-2.44-1-3.88-3.3-4.95-2-.91-2.19-1.1-2.19-1.93s.78-1.46,2.29-1.46a25.55,25.55,0,0,1,3.36.27l.67-4.12a32.12,32.12,0,0,0-4.12-.35C42.37,36.25,40.56,39,40.57,42.27Z"/><path class="cls-4" d="M136.2,54.42h-4.42l.22-1.65a5.52,5.52,0,0,1-4.31,2c-3.4,0-5.65-2.93-5.65-7.38,0-5.91,3.48-10.89,7.61-10.89a5.26,5.26,0,0,1,4.46,2.42l1-6.31h4.61Zm-6.9-4.11c2.18,0,3.71-2.46,3.71-6,0-2.26-.87-3.49-2.48-3.49-2.12,0-3.62,2.48-3.62,6C126.91,49.14,127.71,50.31,129.3,50.31Z"/><path class="cls-4" d="M115.66,36.65c-.58,5.5-1.62,11.07-2.44,16.57l-.21,1.2h4.68c1.67-10.87,2.07-13,4.7-12.72a17.49,17.49,0,0,1,1.77-5.16c-2-.41-3,.7-4.48,2.81a16.72,16.72,0,0,0,.28-2.7Z"/><path class="cls-4" d="M77.16,36.65c-.59,5.5-1.63,11.07-2.44,16.57l-.21,1.2h4.68c1.67-10.87,2.07-13,4.69-12.72a17.45,17.45,0,0,1,1.78-5.16c-2-.41-3,.7-4.48,2.81a16.72,16.72,0,0,0,.28-2.7Z"/><path class="cls-4" d="M138.26,53a1.39,1.39,0,1,1,1.39,1.39A1.39,1.39,0,0,1,138.26,53Zm1.39,1.06a1.06,1.06,0,0,0,0-2.12,1.06,1.06,0,0,0,0,2.12Zm-.19-.45h-.29V52.42h.52a.54.54,0,0,1,.31.06.35.35,0,0,1,.16.3.34.34,0,0,1-.21.32l.22.54h-.31l-.19-.49h-.21Zm0-.7h.16a.33.33,0,0,0,.17,0,.16.16,0,0,0,.07-.14.17.17,0,0,0-.07-.13.55.55,0,0,0-.18,0h-.15Z"/></g></g></svg>