<?xml version="1.0" encoding="iso-8859-1"?>
<!-- Generator: Adobe Illustrator 21.0.0, SVG Export Plug-In . SVG Version: 6.00 Build 0)  -->
<svg version="1.1" id="Capa_1" xmlns="http://www.w3.org/2000/svg" xmlns:xlink="http://www.w3.org/1999/xlink" x="0px" y="0px"
	 viewBox="0 0 409.602 258.695" style="enable-background:new 0 0 409.602 258.695;" xml:space="preserve">
<g>
	<path style="fill:#D7532B;" d="M388.043,122.16h-21.395c0.368-4.136,1.606-8.164,3.739-11.734l11.711-19.645
		c2.308-3.859,2.367-8.687,0.144-12.605c-1.465-2.578-3.816-4.418-6.508-5.434c-0.136-1.918-0.632-3.82-1.64-5.539l-0.942-1.265
		c-8.449-9.02-29.504-30.008-42.597-30.008h-76.102C251.02,15.57,233.312,0,211.984,0H190.43c-21.325,0-39.028,15.57-42.469,35.93
		H79.047c-13.094,0-34.149,20.988-42.594,30.015l-0.941,1.266c-1.004,1.711-1.5,3.613-1.637,5.539
		c-2.695,1.012-5.043,2.852-6.512,5.434c-2.218,3.914-2.16,8.746,0.137,12.601l11.723,19.633c2.132,3.586,3.367,7.609,3.734,11.75
		H21.559C9.672,122.168,0,131.84,0,143.727c0,11.886,9.672,21.558,21.559,21.558h21.558v48.856c0,0.39,0.051,0.769,0.055,1.156
		c0,0.094-0.055,0.18-0.055,0.281c0,0.172,0.086,0.317,0.098,0.481c1.015,23.672,20.453,42.636,44.262,42.636h234.656
		c24.453,0,44.351-19.992,44.351-44.562v-48.856h21.559c11.883,0,21.559-9.671,21.559-21.558
		C409.602,131.832,399.926,122.16,388.043,122.16L388.043,122.16z M190.43,14.371h21.554c13.368,0,24.637,9.168,27.84,21.559H162.59
		C165.793,23.539,177.062,14.371,190.43,14.371L190.43,14.371z M79.047,50.301h251.508c4.007,0.051,16.613,9.738,28.328,21.558
		H50.719C62.434,60.039,75.035,50.352,79.047,50.301L79.047,50.301z M14.371,143.719c0-3.965,3.227-7.188,7.188-7.188h21.558v14.375
		H21.559C17.598,150.906,14.371,147.684,14.371,143.719L14.371,143.719z M352.113,214.133c0,16.644-13.453,30.191-29.98,30.191
		H87.469c-13.531,0-24.871-9.136-28.586-21.558h63.277c3.969,0,7.188-3.215,7.188-7.188c0-3.972-3.219-7.187-7.188-7.187H57.488
		V194.02h43.114c3.968,0,7.187-3.211,7.187-7.184c0-3.977-3.219-7.187-7.187-7.187H57.488v-14.372H86.23
		c3.969,0,7.188-3.21,7.188-7.187c0-3.973-3.219-7.184-7.188-7.184H57.488V122.16h-0.164c-0.39-6.734-2.301-13.301-5.765-19.105
		L41.52,86.231h326.558l-10.031,16.832c-3.461,5.796-5.375,12.363-5.762,19.097h-0.172V214.133z M388.043,150.906h-21.559v-14.375
		h21.559c3.957,0,7.184,3.223,7.184,7.188C395.227,147.684,392,150.906,388.043,150.906L388.043,150.906z M388.043,150.906"/>
</g>
</svg>
