<svg xmlns="http://www.w3.org/2000/svg" viewBox="0 0 31.45 28.35"><defs><style>.cls-1{fill:#e0592a;}</style></defs><title>olla</title><g id="Capa_2" data-name="Capa 2"><g id="Capa_1-2" data-name="Capa 1"><path class="cls-1" d="M18.38,2.66c-.17,0-.43-.08-.78-.12V2.21H17A1.78,1.78,0,0,0,17.6.89C17.6.4,16.76,0,15.72,0s-1.87.4-1.87.89a1.75,1.75,0,0,0,.62,1.32h-.62v.33l-.73.11A13.9,13.9,0,0,0,3,10.44H28.41A13.92,13.92,0,0,0,18.38,2.66Z"/><path class="cls-1" d="M30.65,14.62l-1.23.11c0-.39-.05-.78-.1-1.17H2.13c0,.39-.08.78-.1,1.17L.79,14.62a.78.78,0,0,0-.79.75.76.76,0,0,0,.65.86l1.41.12a13,13,0,0,0,13,12h1.33a13,13,0,0,0,13-12l1.4-.12a.76.76,0,0,0,.65-.86A.77.77,0,0,0,30.65,14.62Z"/></g></g></svg>