<?xml version="1.0" encoding="iso-8859-1"?>
<!-- Generator: Adobe Illustrator 21.0.0, SVG Export Plug-In . SVG Version: 6.00 Build 0)  -->
<svg version="1.1" id="Capa_1" xmlns="http://www.w3.org/2000/svg" xmlns:xlink="http://www.w3.org/1999/xlink" x="0px" y="0px"
	 viewBox="0 0 290.492 409.602" style="enable-background:new 0 0 290.492 409.602;" xml:space="preserve">
<g>
	<path style="fill:#FFB718;" d="M290.488,316.512V8.992c0-4.965-4.023-8.992-8.992-8.992H30.015C13.465,0,0,13.465,0,30.02v307.578
		l0.004-0.004v0.004c0,16.554,13.464,30.019,30.015,30.019H66.5v32.988c0,4.969,4.027,8.997,8.992,8.997h45.863
		c4.965,0,8.992-4.028,8.992-8.997v-32.988h7.645v16.805c0,4.965,4.023,8.992,8.992,8.992h45.859c4.965,0,8.993-4.027,8.993-8.992
		v-16.805H281.5c4.968,0,8.992-4.027,8.992-8.992v-42.051C290.492,316.555,290.488,316.535,290.488,316.512L290.488,316.512z
		 M30.015,17.984h242.489v289.598H30.019c-4.211,0-8.285,0.871-12.035,2.512V30.02C17.984,23.383,23.383,17.984,30.015,17.984
		L30.015,17.984z M30.019,349.633c-6.633,0-12.031-5.399-12.031-12.035c0-3.211,1.25-6.235,3.508-8.496
		c2.285-2.278,5.308-3.536,8.523-3.536H66.5v24.067H30.019z M84.488,391.613v-66.047h27.875v66.047H84.488z M130.347,349.633
		v-24.067h7.641v24.067H130.347z M155.976,375.43v-49.864h27.871v49.864H155.976z M272.507,349.633h-70.671v-24.067h70.671V349.633z
		 M272.507,349.633"/>
	<path style="fill:#FFB718;" d="M198.687,149.105v28.063c-8.316,3.516-14.164,11.758-14.164,21.336v63.398
		c0,12.766,10.387,23.153,23.156,23.153c12.77,0,23.157-10.387,23.157-23.153v-63.398c0-9.578-5.852-17.82-14.164-21.336v-28.063
		c16.996-4.066,29.675-19.375,29.675-37.601V54.852c0-4.965-4.027-8.993-8.996-8.993c-4.965,0-8.992,4.028-8.992,8.993v34.171
		h-11.687V54.852c0-4.965-4.028-8.993-8.993-8.993c-4.968,0-8.992,4.028-8.992,8.993v34.171h-11.691V54.852
		c0-4.965-4.024-8.993-8.992-8.993c-4.965,0-8.993,4.028-8.993,8.993v56.652C169.011,129.73,181.691,145.039,198.687,149.105
		L198.687,149.105z M212.847,261.898c0,2.852-2.316,5.172-5.168,5.172c-2.851,0-5.172-2.32-5.172-5.172v-63.394
		c0-2.852,2.321-5.172,5.172-5.172c2.852,0,5.168,2.32,5.168,5.172V261.898z M228.363,107.008v4.496
		c0,11.406-9.281,20.683-20.684,20.683c-11.402,0-20.683-9.277-20.683-20.683v-4.496H228.363z M228.363,107.008"/>
	<path style="fill:#FFB718;" d="M90.781,149.105v28.063c-8.316,3.516-14.164,11.758-14.164,21.336v63.398
		c0,12.766,10.387,23.153,23.156,23.153c12.766,0,23.152-10.387,23.152-23.153v-63.398c0-9.578-5.847-17.82-14.16-21.336v-28.063
		c16.996-4.066,29.676-19.375,29.676-37.601V84.527c0-21.32-17.348-38.668-38.668-38.668c-21.324,0-38.668,17.348-38.668,38.668
		v26.977C61.105,129.73,73.781,145.039,90.781,149.105L90.781,149.105z M104.941,261.898c0,2.852-2.316,5.172-5.168,5.172
		c-2.851,0-5.172-2.32-5.172-5.172v-63.394c0-2.852,2.321-5.172,5.172-5.172c2.852,0,5.168,2.32,5.168,5.172V261.898z M79.09,84.527
		c0-11.402,9.277-20.683,20.683-20.683c11.406,0,20.684,9.281,20.684,20.683v26.977c0,11.406-9.278,20.683-20.684,20.683
		c-11.406,0-20.683-9.277-20.683-20.683V84.527z M79.09,84.527"/>
</g>
</svg>
