<svg xmlns="http://www.w3.org/2000/svg" viewBox="0 0 29.35 29.35"><defs><style>.cls-1{fill:#7c7c7b;}.cls-1,.cls-2,.cls-3{stroke:#fff;}.cls-1,.cls-2,.cls-3,.cls-4{stroke-miterlimit:10;}.cls-2{fill:#9d9d9c;}.cls-2,.cls-3{stroke-width:0.44px;}.cls-3,.cls-4{fill:none;}.cls-4{stroke:#7c7c7b;stroke-width:0.87px;}</style></defs><title>reloj</title><g id="Capa_2" data-name="Capa 2"><g id="Capa_1-2" data-name="Capa 1"><circle class="cls-1" cx="14.67" cy="14.67" r="14.17" transform="translate(-0.36 0.37) rotate(-1.43)"/><path class="cls-2" d="M24.59,14.67a9.92,9.92,0,1,1-9.92-9.92A9.92,9.92,0,0,1,24.59,14.67Z"/><line class="cls-3" x1="5.99" y1="14.67" x2="7.23" y2="14.67"/><line class="cls-3" x1="22.11" y1="14.67" x2="23.35" y2="14.67"/><line class="cls-3" x1="14.67" y1="23.35" x2="14.67" y2="22.11"/><line class="cls-3" x1="14.67" y1="7.23" x2="14.67" y2="5.99"/><line class="cls-3" x1="8.54" y1="20.81" x2="9.41" y2="19.93"/><line class="cls-3" x1="19.93" y1="9.41" x2="20.81" y2="8.54"/><line class="cls-3" x1="8.54" y1="8.54" x2="9.41" y2="9.41"/><line class="cls-3" x1="19.93" y1="19.93" x2="20.81" y2="20.81"/><polyline class="cls-4" points="19.93 19.93 14.67 14.67 14.67 5.99 14.67 14.67"/></g></g></svg>