<svg xmlns="http://www.w3.org/2000/svg" viewBox="0 0 15.24 28.6"><defs><style>.cls-1{fill:#9d9d9c;}.cls-2{fill:#ff9015;}.cls-3{fill:none;stroke:#9d9d9c;stroke-miterlimit:10;stroke-width:0.5px;}.cls-4{fill:#fff;}.cls-5{fill:#7c7c7b;}</style></defs><title>salero</title><g id="Capa_2" data-name="Capa 2"><g id="Capa_1-2" data-name="Capa 1"><path class="cls-1" d="M12.55,2.91c0,1.6-2.21,2.9-4.93,2.9s-4.94-1.3-4.94-2.9S4.89,0,7.62,0,12.55,1.3,12.55,2.91Z"/><path class="cls-2" d="M15,24c0,2.41-3.29,4.34-7.37,4.34S.25,26.41.25,24c0-.42.29-4.25.55-7.77H14.45C14.71,19.75,15,23.58,15,24Z"/><path class="cls-3" d="M14,10.14a3.45,3.45,0,0,0-2.25-2.85,6.29,6.29,0,0,1-4.11,1.3,6.29,6.29,0,0,1-4.11-1.3,3.45,3.45,0,0,0-2.25,2.85S.25,23.21.25,24c0,2.39,3.3,4.34,7.37,4.34S15,26.4,15,24C15,23.21,14,10.14,14,10.14Z"/><path class="cls-4" d="M7.86,2.17a.47.47,0,0,0-.48.48.48.48,0,0,0,.48.49.49.49,0,0,0,.49-.49A.48.48,0,0,0,7.86,2.17Z"/><path class="cls-4" d="M9.21.84a.49.49,0,1,0,.48.48A.49.49,0,0,0,9.21.84Z"/><path class="cls-4" d="M6,3.65a.49.49,0,1,0,0,1,.49.49,0,0,0,0-1Z"/><path class="cls-4" d="M6,1.09a.49.49,0,1,0,0,1,.49.49,0,0,0,0-1Z"/><path class="cls-4" d="M8.93,4a.49.49,0,0,0,0,1,.49.49,0,1,0,0-1Z"/><path class="cls-4" d="M10.86,2.08a.48.48,0,0,0-.49.48.49.49,0,0,0,.49.49.48.48,0,0,0,.48-.49A.47.47,0,0,0,10.86,2.08Z"/><path class="cls-4" d="M4.37,2.08a.48.48,0,0,0-.48.48.49.49,0,1,0,1,0A.48.48,0,0,0,4.37,2.08Z"/><path class="cls-5" d="M7.62,5.81c-2.73,0-4.94-1.3-4.94-2.91V5.69c0,1.6,2.21,2.9,4.94,2.9s4.93-1.3,4.93-2.9V2.9C12.55,4.51,10.35,5.81,7.62,5.81Z"/></g></g></svg>