<svg height="512pt" viewBox="0 0 512 512" width="512pt" xmlns="http://www.w3.org/2000/svg"><path d="m437.019531 74.980469c-46.328125-46.328125-110.328125-74.980469-181.019531-74.980469s-134.691406 28.652344-181.019531 74.980469-74.980469 110.328125-74.980469 181.019531 28.652344 134.691406 74.980469 181.019531 110.328125 74.980469 181.019531 74.980469 134.691406-28.652344 181.019531-74.980469 74.980469-110.328125 74.980469-181.019531-28.652344-134.691406-74.980469-181.019531zm0 0" fill="#6697cc"/><path d="m437.019531 74.980469c-11.847656 11.847656-12.925781 30.6875-2.53125 43.832031 28.910157 36.566406 46.605469 84.914062 46.605469 137.1875 0 60.125-23.414062 116.652344-65.929688 159.164062-42.511718 42.515626-99.039062 65.929688-159.164062 65.929688-52.792969 0-101.402344-18.160156-137.109375-46.546875-13.144531-10.453125-32.035156-9.402344-43.910156 2.472656 46.328125 46.328125 110.328125 74.980469 181.019531 74.980469s134.691406-28.652344 181.019531-74.980469 74.980469-110.328125 74.980469-181.019531-28.652344-134.691406-74.980469-181.019531zm0 0" fill="#4b7cb1"/><path d="m256 450.1875c-107.074219 0-194.1875-87.113281-194.1875-194.1875s87.113281-194.1875 194.1875-194.1875 194.1875 87.113281 194.1875 194.1875-87.113281 194.1875-194.1875 194.1875zm0 0" fill="#fff9eb"/><path d="m450.1875 256c0-56.039062-23.867188-106.601562-61.964844-142.078125-9.546875 14.144531-9.464844 33.117187.945313 47.726563 19.785156 27.75 30.199219 60.519531 30.113281 94.765624-.222656 89.582032-73.285156 162.644532-162.855469 162.871094h-.425781c-34.300781 0-67-10.464844-94.566406-30.269531-7.167969-5.148437-15.597656-7.871094-24.382813-7.871094-8.375 0-16.363281 2.476563-23.136719 7.070313 35.476563 38.101562 86.042969 61.972656 142.085938 61.972656 107.074219 0 194.1875-87.113281 194.1875-194.1875zm0 0" fill="#d3cdbf"/><path d="m359.230469 248.273438h-92.929688v15.453124h92.929688c4.269531 0 7.726562-3.460937 7.726562-7.726562s-3.457031-7.726562-7.726562-7.726562zm0 0" fill="#35404a"/><path d="m256 181.570312c-4.265625 0-7.726562 3.457032-7.726562 7.726563v55.359375h15.453124v-55.359375c0-4.269531-3.460937-7.726563-7.726562-7.726563zm0 0" fill="#35404a"/><path d="m276.605469 256c0 11.378906-9.226563 20.605469-20.605469 20.605469s-20.605469-9.226563-20.605469-20.605469 9.226563-20.605469 20.605469-20.605469 20.605469 9.226563 20.605469 20.605469zm0 0" fill="#4b7cb1"/><g fill="#35404a"><path d="m256 86.535156c-4.269531 0-7.726562 3.460938-7.726562 7.726563v29.875c0 4.265625 3.457031 7.726562 7.726562 7.726562s7.726562-3.460937 7.726562-7.726562v-29.875c0-4.265625-3.457031-7.726563-7.726562-7.726563zm0 0"/><path d="m256 380.136719c-4.269531 0-7.726562 3.460937-7.726562 7.726562v29.875c0 4.265625 3.457031 7.726563 7.726562 7.726563s7.726562-3.460938 7.726562-7.726563v-29.875c0-4.265625-3.457031-7.726562-7.726562-7.726562zm0 0"/><path d="m417.738281 248.273438h-29.875c-4.269531 0-7.726562 3.460937-7.726562 7.726562s3.457031 7.726562 7.726562 7.726562h29.875c4.269531 0 7.726563-3.460937 7.726563-7.726562s-3.457032-7.726562-7.726563-7.726562zm0 0"/><path d="m131.863281 256c0-4.265625-3.457031-7.726562-7.726562-7.726562h-29.875c-4.269531 0-7.726563 3.460937-7.726563 7.726562s3.457032 7.726562 7.726563 7.726562h29.875c4.269531 0 7.726562-3.460937 7.726562-7.726562zm0 0"/><path d="m181.820312 112.066406c-2.132812-3.695312-6.859374-4.960937-10.550781-2.828125-3.695312 2.132813-4.964843 6.859375-2.828125 10.554688l9.785156 16.953125c2.136719 3.699218 6.863282 4.957031 10.554688 2.824218 3.695312-2.132812 4.960938-6.855468 2.828125-10.550781zm0 0"/><path d="m333.773438 375.253906c-2.132813-3.695312-6.859376-4.960937-10.554688-2.824218-3.695312 2.132812-4.960938 6.855468-2.828125 10.550781l9.789063 16.953125c2.136718 3.699218 6.863281 4.960937 10.550781 2.828125 3.695312-2.132813 4.964843-6.859375 2.828125-10.554688zm0 0"/><path d="m382.980469 191.609375 16.953125-9.789063c3.695312-2.132812 4.960937-6.859374 2.828125-10.550781-2.136719-3.695312-6.859375-4.964843-10.554688-2.828125l-16.953125 9.785156c-3.691406 2.132813-4.960937 6.859376-2.824218 10.554688 2.136718 3.699219 6.863281 4.960938 10.550781 2.828125zm0 0"/><path d="m129.019531 320.390625-16.953125 9.789063c-3.695312 2.132812-4.960937 6.859374-2.828125 10.550781 2.136719 3.703125 6.863281 4.960937 10.554688 2.828125l16.953125-9.785156c3.691406-2.132813 4.960937-6.859376 2.824218-10.554688-2.132812-3.695312-6.859374-4.960938-10.550781-2.828125zm0 0"/><path d="m136.746094 178.226562-16.953125-9.785156c-3.695313-2.136718-8.421875-.871094-10.554688 2.828125-2.132812 3.691407-.867187 8.417969 2.828125 10.550781l16.953125 9.789063c3.6875 2.132813 8.417969.871094 10.550781-2.828125 2.136719-3.695312.867188-8.421875-2.824218-10.554688zm0 0"/><path d="m399.933594 330.179688-16.953125-9.789063c-3.695313-2.132813-8.421875-.867187-10.550781 2.828125-2.136719 3.695312-.867188 8.421875 2.824218 10.554688l16.953125 9.785156c3.691407 2.132812 8.417969.871094 10.554688-2.828125 2.132812-3.691407.867187-8.417969-2.828125-10.550781zm0 0"/><path d="m340.730469 109.238281c-3.691407-2.132812-8.417969-.867187-10.550781 2.828125l-9.789063 16.953125c-2.132813 3.695313-.867187 8.417969 2.828125 10.550781 3.691406 2.132813 8.421875.871094 10.554688-2.824218l9.785156-16.953125c2.136718-3.695313.867187-8.421875-2.828125-10.554688zm0 0"/><path d="m188.78125 372.429688c-3.695312-2.136719-8.421875-.871094-10.554688 2.824218l-9.785156 16.953125c-2.136718 3.695313-.867187 8.421875 2.828125 10.554688 3.6875 2.132812 8.417969.871093 10.550781-2.828125l9.789063-16.953125c2.132813-3.695313.867187-8.417969-2.828125-10.550781zm0 0"/></g></svg>